<svg width="751" height="606" viewBox="0 0 751 606" fill="none" xmlns="http://www.w3.org/2000/svg">
<g opacity="0.8" clip-path="url(#clip0_7406_5624)">
<g style="mix-blend-mode:multiply" opacity="0.5">
<path d="M250.841 210.729C282.315 168.353 289.873 120.694 267.723 104.281C245.572 87.8673 202.102 108.915 170.628 151.292C139.155 193.668 131.597 241.327 153.747 257.74C175.897 274.154 219.368 253.106 250.841 210.729Z" fill="#FF9B00"/>
</g>
<path d="M436.029 329.13L448.71 343.036" stroke="#222222" stroke-miterlimit="10"/>
<path d="M479.468 338.394L471.211 345.689" stroke="#222222" stroke-miterlimit="10"/>
<path d="M480.134 378.269L472.746 368.543" stroke="#222222" stroke-miterlimit="10"/>
<path d="M441.314 375.307L448.57 368.06" stroke="#222222" stroke-miterlimit="10"/>
<path d="M362.503 347.993L358.27 363.411" stroke="#222222" stroke-miterlimit="10"/>
<path d="M357.169 222.004L348.68 224.847" stroke="#222222" stroke-miterlimit="10"/>
<path d="M293.421 151.587L292.854 168.595" stroke="#222222" stroke-miterlimit="10"/>
<path d="M302.871 199.325L320.22 216.851" stroke="#222222" stroke-miterlimit="10"/>
<path d="M324.881 247.875L323.57 273.257" stroke="#222222" stroke-miterlimit="10"/>
<path d="M336.664 248.478L335.354 273.866" stroke="#222222" stroke-miterlimit="10"/>
<path d="M341.018 303.588L356.159 318.852" stroke="#222222" stroke-miterlimit="10"/>
<path d="M383.146 327.219L403.98 321.029" stroke="#222222" stroke-miterlimit="10"/>
<path d="M424.146 297.006L431.619 280.818" stroke="#222222" stroke-miterlimit="10"/>
<path d="M433.119 301.137L440.592 284.949" stroke="#222222" stroke-miterlimit="10"/>
<path d="M169.229 149.949L180.535 151.58" stroke="#222222" stroke-miterlimit="10"/>
<path d="M225.42 184.152L207.082 164.891" stroke="#222222" stroke-miterlimit="10"/>
<path d="M272.33 183.186L252.135 189.929" stroke="#222222" stroke-miterlimit="10"/>
<path d="M276.43 195.453L256.242 202.196" stroke="#222222" stroke-miterlimit="10"/>
<path d="M239.418 222.41L237.336 244.563" stroke="#222222" stroke-miterlimit="10"/>
<path d="M251.699 269.994L269.28 289.297" stroke="#222222" stroke-miterlimit="10"/>
<path d="M311.759 296.53L296.604 303.903" stroke="#222222" stroke-miterlimit="10"/>
<path d="M243.652 278.949L261.233 298.253" stroke="#222222" stroke-miterlimit="10"/>
<path d="M203.781 274.671L216.637 269.805" stroke="#222222" stroke-miterlimit="10"/>
<path d="M279.009 331.364L278.084 347.195" stroke="#222222" stroke-miterlimit="10"/>
<path d="M433.427 395.444C441.012 395.444 447.16 389.303 447.16 381.727C447.16 374.152 441.012 368.011 433.427 368.011C425.843 368.011 419.695 374.152 419.695 381.727C419.695 389.303 425.843 395.444 433.427 395.444Z" fill="url(#paint0_linear_7406_5624)"/>
<path d="M486.849 346.537C494.433 346.537 500.582 340.396 500.582 332.82C500.582 325.245 494.433 319.104 486.849 319.104C479.265 319.104 473.117 325.245 473.117 332.82C473.117 340.396 479.265 346.537 486.849 346.537Z" fill="url(#paint1_linear_7406_5624)"/>
<path d="M485.728 397.355C493.312 397.355 499.46 391.214 499.46 383.639C499.46 376.063 493.312 369.922 485.728 369.922C478.144 369.922 471.996 376.063 471.996 383.639C471.996 391.214 478.144 397.355 485.728 397.355Z" fill="url(#paint2_linear_7406_5624)"/>
<path d="M460.178 377.904C471.998 377.904 481.579 368.334 481.579 356.528C481.579 344.722 471.998 335.152 460.178 335.152C448.359 335.152 438.777 344.722 438.777 356.528C438.777 368.334 448.359 377.904 460.178 377.904Z" fill="url(#paint3_linear_7406_5624)"/>
<path d="M423.433 340.298C436.286 340.298 446.705 329.891 446.705 317.052C446.705 304.214 436.286 293.807 423.433 293.807C410.58 293.807 400.16 304.214 400.16 317.052C400.16 329.891 410.58 340.298 423.433 340.298Z" fill="url(#paint4_linear_7406_5624)"/>
<path d="M355.564 389.786C364.693 389.786 372.093 382.394 372.093 373.276C372.093 364.158 364.693 356.766 355.564 356.766C346.435 356.766 339.035 364.158 339.035 373.276C339.035 382.394 346.435 389.786 355.564 389.786Z" fill="url(#paint5_linear_7406_5624)"/>
<path d="M368.434 352.922C379.595 352.922 388.643 343.885 388.643 332.736C388.643 321.588 379.595 312.55 368.434 312.55C357.273 312.55 348.225 321.588 348.225 332.736C348.225 343.885 357.273 352.922 368.434 352.922Z" fill="url(#paint6_linear_7406_5624)"/>
<path d="M366.259 233.263C374.165 233.263 380.573 226.861 380.573 218.965C380.573 211.069 374.165 204.667 366.259 204.667C358.354 204.667 351.945 211.069 351.945 218.965C351.945 226.861 358.354 233.263 366.259 233.263Z" fill="url(#paint7_linear_7406_5624)"/>
<path d="M331.351 256.564C345.002 256.564 356.068 245.511 356.068 231.876C356.068 218.241 345.002 207.188 331.351 207.188C317.701 207.188 306.635 218.241 306.635 231.876C306.635 245.511 317.701 256.564 331.351 256.564Z" fill="url(#paint8_linear_7406_5624)"/>
<path d="M293.814 155.802C302.606 155.802 309.733 148.683 309.733 139.901C309.733 131.12 302.606 124 293.814 124C285.022 124 277.895 131.12 277.895 139.901C277.895 148.683 285.022 155.802 293.814 155.802Z" fill="url(#paint9_linear_7406_5624)"/>
<path d="M159.38 166.13C168.172 166.13 175.299 159.011 175.299 150.229C175.299 141.447 168.172 134.328 159.38 134.328C150.588 134.328 143.461 141.447 143.461 150.229C143.461 159.011 150.588 166.13 159.38 166.13Z" fill="url(#paint10_linear_7406_5624)"/>
<path d="M292.306 209.618C305.957 209.618 317.023 198.564 317.023 184.93C317.023 171.295 305.957 160.241 292.306 160.241C278.656 160.241 267.59 171.295 267.59 184.93C267.59 198.564 278.656 209.618 292.306 209.618Z" fill="url(#paint11_linear_7406_5624)"/>
<path d="M328.414 315.267C342.064 315.267 353.13 304.214 353.13 290.579C353.13 276.944 342.064 265.891 328.414 265.891C314.763 265.891 303.697 276.944 303.697 290.579C303.697 304.214 314.763 315.267 328.414 315.267Z" fill="url(#paint12_linear_7406_5624)"/>
<path d="M195.222 175.827C208.075 175.827 218.494 165.42 218.494 152.582C218.494 139.743 208.075 129.336 195.222 129.336C182.369 129.336 171.949 139.743 171.949 152.582C171.949 165.42 182.369 175.827 195.222 175.827Z" fill="url(#paint13_linear_7406_5624)"/>
<path d="M239.929 224.938C253.58 224.938 264.646 213.884 264.646 200.249C264.646 186.615 253.58 175.561 239.929 175.561C226.279 175.561 215.213 186.615 215.213 200.249C215.213 213.884 226.279 224.938 239.929 224.938Z" fill="url(#paint14_linear_7406_5624)"/>
<path d="M280.334 333.597C293.984 333.597 305.05 322.544 305.05 308.909C305.05 295.274 293.984 284.221 280.334 284.221C266.683 284.221 255.617 295.274 255.617 308.909C255.617 322.544 266.683 333.597 280.334 333.597Z" fill="url(#paint15_linear_7406_5624)"/>
<path d="M235.513 288.674C249.164 288.674 260.23 277.621 260.23 263.986C260.23 250.351 249.164 239.298 235.513 239.298C221.863 239.298 210.797 250.351 210.797 263.986C210.797 277.621 221.863 288.674 235.513 288.674Z" fill="url(#paint16_linear_7406_5624)"/>
<path d="M193.994 294.885C203.123 294.885 210.523 287.493 210.523 278.375C210.523 269.257 203.123 261.865 193.994 261.865C184.865 261.865 177.465 269.257 177.465 278.375C177.465 287.493 184.865 294.885 193.994 294.885Z" fill="url(#paint17_linear_7406_5624)"/>
<path d="M277.412 375.139C286.541 375.139 293.941 367.747 293.941 358.629C293.941 349.51 286.541 342.119 277.412 342.119C268.283 342.119 260.883 349.51 260.883 358.629C260.883 367.747 268.283 375.139 277.412 375.139Z" fill="url(#paint18_linear_7406_5624)"/>
<path d="M440.936 286.749C452.097 286.749 461.145 277.711 461.145 266.563C461.145 255.415 452.097 246.377 440.936 246.377C429.775 246.377 420.727 255.415 420.727 266.563C420.727 277.711 429.775 286.749 440.936 286.749Z" fill="url(#paint19_linear_7406_5624)"/>
<g style="mix-blend-mode:multiply">
<path d="M433.414 384.941C431.711 384.941 430.309 383.604 430.218 381.902C430.12 380.138 431.487 378.619 433.253 378.521C433.316 378.521 433.379 378.521 433.435 378.521C435.139 378.521 436.541 379.858 436.632 381.559C436.681 382.427 436.4 383.233 435.812 383.877C435.23 384.521 434.466 384.892 433.59 384.941C433.526 384.941 433.463 384.941 433.4 384.941H433.414Z" fill="#C99CFC"/>
</g>
<g style="mix-blend-mode:multiply">
<path d="M486.836 336.027C485.133 336.027 483.731 334.69 483.64 332.988C483.542 331.224 484.909 329.704 486.675 329.606C486.738 329.606 486.801 329.606 486.857 329.606C488.561 329.606 489.963 330.944 490.054 332.645C490.103 333.513 489.822 334.319 489.241 334.963C488.659 335.607 487.895 335.978 487.018 336.027C486.955 336.027 486.892 336.027 486.829 336.027H486.836Z" fill="#C99CFC"/>
</g>
<g style="mix-blend-mode:multiply">
<path d="M485.713 386.853C484.01 386.853 482.608 385.515 482.517 383.814C482.419 382.049 483.785 380.53 485.552 380.432C485.615 380.432 485.678 380.432 485.734 380.432C487.438 380.432 488.84 381.769 488.931 383.471C488.98 384.339 488.699 385.144 488.118 385.788C487.536 386.433 486.772 386.804 485.895 386.853C485.832 386.853 485.769 386.853 485.706 386.853H485.713Z" fill="#C99CFC"/>
</g>
<g style="mix-blend-mode:multiply">
<path d="M460.164 367.402C454.388 367.402 449.621 362.886 449.313 357.116C448.99 351.13 453.603 345.991 459.596 345.669C459.799 345.655 460.003 345.655 460.206 345.655C465.982 345.655 470.749 350.171 471.057 355.94C471.38 361.927 466.767 367.066 460.774 367.388C460.571 367.402 460.367 367.402 460.164 367.402Z" fill="#C99CFC"/>
</g>
<g style="mix-blend-mode:multiply">
<path d="M423.417 329.796C416.653 329.796 411.066 324.502 410.695 317.739C410.512 314.343 411.662 311.073 413.94 308.538C416.218 306.004 419.345 304.512 422.744 304.323C422.983 304.309 423.221 304.302 423.452 304.302C430.217 304.302 435.804 309.596 436.168 316.359C436.35 319.755 435.201 323.025 432.923 325.56C430.644 328.094 427.518 329.586 424.118 329.775C423.88 329.789 423.649 329.796 423.41 329.796H423.417Z" fill="#C99CFC"/>
</g>
<g style="mix-blend-mode:multiply">
<path d="M355.549 379.277C352.36 379.277 349.731 376.777 349.556 373.591C349.374 370.286 351.925 367.451 355.234 367.269C355.346 367.269 355.458 367.262 355.57 367.262C358.76 367.262 361.389 369.754 361.557 372.947C361.739 376.252 359.187 379.088 355.879 379.27C355.767 379.27 355.655 379.277 355.542 379.277H355.549Z" fill="#C99CFC"/>
</g>
<g style="mix-blend-mode:multiply">
<path d="M368.419 342.42C363.281 342.42 359.033 338.394 358.753 333.261C358.613 330.678 359.489 328.192 361.22 326.267C362.952 324.341 365.328 323.207 367.908 323.067C368.09 323.06 368.272 323.053 368.447 323.053C373.586 323.053 377.833 327.079 378.114 332.211C378.254 334.795 377.378 337.28 375.646 339.206C373.915 341.131 371.539 342.266 368.959 342.406C368.777 342.413 368.602 342.42 368.419 342.42Z" fill="#C99CFC"/>
</g>
<g style="mix-blend-mode:multiply">
<path d="M366.247 222.753C364.235 222.753 362.574 221.178 362.468 219.168C362.356 217.082 363.962 215.289 366.057 215.177C366.135 215.177 366.205 215.177 366.275 215.177C368.287 215.177 369.948 216.753 370.053 218.762C370.109 219.777 369.766 220.744 369.086 221.5C368.406 222.256 367.48 222.697 366.464 222.753C366.387 222.753 366.317 222.753 366.247 222.753Z" fill="#C99CFC"/>
</g>
<g style="mix-blend-mode:multiply">
<path d="M331.33 246.062C323.795 246.062 317.577 240.166 317.164 232.64C316.96 228.859 318.243 225.218 320.774 222.396C323.304 219.574 326.788 217.908 330.58 217.705C330.847 217.691 331.106 217.684 331.365 217.684C338.901 217.684 345.119 223.579 345.532 231.106C345.735 234.887 344.453 238.528 341.922 241.35C339.392 244.171 335.908 245.838 332.115 246.041C331.849 246.055 331.59 246.062 331.323 246.062H331.33Z" fill="#C99CFC"/>
</g>
<g style="mix-blend-mode:multiply">
<path d="M293.808 145.307C290.941 145.307 288.578 143.059 288.424 140.196C288.263 137.22 290.555 134.671 293.534 134.51C293.632 134.51 293.737 134.503 293.843 134.503C296.71 134.503 299.072 136.751 299.226 139.614C299.387 142.59 297.095 145.139 294.116 145.3C294.018 145.3 293.913 145.307 293.808 145.307Z" fill="#C99CFC"/>
</g>
<g style="mix-blend-mode:multiply">
<path d="M159.366 155.634C156.499 155.634 154.137 153.387 153.983 150.523C153.821 147.547 156.114 144.999 159.093 144.838C159.191 144.838 159.296 144.831 159.401 144.831C162.268 144.831 164.63 147.078 164.785 149.942C164.946 152.918 162.654 155.466 159.675 155.627C159.576 155.627 159.471 155.634 159.366 155.634Z" fill="#C99CFC"/>
</g>
<g style="mix-blend-mode:multiply">
<path d="M292.285 199.122C284.75 199.122 278.525 193.227 278.119 185.7C277.915 181.912 279.198 178.278 281.729 175.456C284.266 172.635 287.743 170.968 291.535 170.765C291.802 170.751 292.061 170.744 292.327 170.744C299.863 170.744 306.081 176.64 306.487 184.166C306.908 191.98 300.893 198.681 293.07 199.101C292.804 199.115 292.545 199.122 292.285 199.122Z" fill="#C99CFC"/>
</g>
<g style="mix-blend-mode:multiply">
<path d="M328.393 304.764C320.857 304.764 314.639 298.869 314.226 291.342C313.805 283.528 319.82 276.827 327.643 276.407C327.909 276.393 328.168 276.386 328.435 276.386C335.97 276.386 342.188 282.282 342.594 289.809C343.015 297.622 337.001 304.323 329.178 304.743C328.911 304.757 328.652 304.764 328.393 304.764Z" fill="#C99CFC"/>
</g>
<g style="mix-blend-mode:multiply">
<path d="M195.201 165.332C188.436 165.332 182.849 160.039 182.478 153.275C182.296 149.879 183.445 146.609 185.723 144.075C188.001 141.54 191.128 140.049 194.528 139.86C194.766 139.846 195.004 139.839 195.236 139.839C202 139.839 207.587 145.132 207.951 151.896C208.134 155.291 206.984 158.561 204.706 161.096C202.428 163.631 199.301 165.122 195.901 165.311C195.663 165.325 195.432 165.332 195.193 165.332H195.201Z" fill="#C99CFC"/>
</g>
<g style="mix-blend-mode:multiply">
<path d="M239.908 214.442C232.373 214.442 226.155 208.547 225.741 201.02C225.321 193.206 231.335 186.505 239.158 186.085C239.425 186.071 239.684 186.064 239.943 186.064C247.479 186.064 253.696 191.959 254.103 199.486C254.524 207.3 248.509 214.001 240.686 214.421C240.42 214.435 240.161 214.442 239.901 214.442H239.908Z" fill="#C99CFC"/>
</g>
<g style="mix-blend-mode:multiply">
<path d="M280.313 323.102C272.777 323.102 266.559 317.206 266.146 309.68C265.725 301.866 271.74 295.165 279.563 294.745C279.829 294.731 280.088 294.724 280.348 294.724C287.883 294.724 294.101 300.619 294.514 308.146C294.718 311.934 293.435 315.568 290.904 318.39C288.374 321.211 284.89 322.878 281.098 323.081C280.831 323.095 280.572 323.102 280.306 323.102H280.313Z" fill="#C99CFC"/>
</g>
<g style="mix-blend-mode:multiply">
<path d="M235.493 278.179C227.958 278.179 221.74 272.283 221.333 264.756C220.913 256.943 226.927 250.242 234.75 249.822C235.016 249.808 235.276 249.801 235.542 249.801C243.078 249.801 249.295 255.696 249.702 263.223C250.122 271.037 244.108 277.738 236.285 278.158C236.019 278.172 235.759 278.179 235.5 278.179H235.493Z" fill="#C99CFC"/>
</g>
<g style="mix-blend-mode:multiply">
<path d="M193.981 284.382C190.799 284.382 188.163 281.89 187.995 278.697C187.911 277.093 188.45 275.553 189.523 274.363C190.595 273.172 192.068 272.465 193.673 272.374C193.785 272.374 193.897 272.367 194.009 272.367C197.192 272.367 199.827 274.86 199.996 278.053C200.08 279.656 199.54 281.196 198.467 282.387C197.395 283.577 195.923 284.284 194.318 284.375C194.206 284.375 194.093 284.382 193.981 284.382Z" fill="#C99CFC"/>
</g>
<g style="mix-blend-mode:multiply">
<path d="M277.389 364.636C274.207 364.636 271.571 362.144 271.403 358.958C271.319 357.354 271.859 355.814 272.931 354.624C274.004 353.433 275.476 352.726 277.081 352.635C277.193 352.635 277.305 352.628 277.417 352.628C280.6 352.628 283.236 355.121 283.404 358.307C283.488 359.91 282.948 361.45 281.876 362.641C280.803 363.831 279.331 364.538 277.726 364.629C277.614 364.629 277.502 364.636 277.389 364.636Z" fill="#C99CFC"/>
</g>
<g style="mix-blend-mode:multiply">
<path d="M440.921 276.253C435.783 276.253 431.535 272.227 431.255 267.095C431.115 264.511 431.991 262.033 433.722 260.107C435.454 258.182 437.83 257.041 440.417 256.908C440.599 256.901 440.781 256.894 440.956 256.894C446.095 256.894 450.342 260.92 450.623 266.052C450.763 268.635 449.887 271.121 448.155 273.047C446.424 274.972 444.048 276.106 441.468 276.246C441.286 276.253 441.111 276.26 440.928 276.26L440.921 276.253Z" fill="#C99CFC"/>
</g>
<g style="mix-blend-mode:multiply">
<path d="M712.333 433.729L548.192 312.102L545.43 310.058C544.918 309.68 544.378 309.35 543.803 309.063C521.064 295.879 479.636 316.947 449.305 357.788C418.98 398.623 410.814 444.323 430.021 462.24C430.427 462.674 430.869 463.067 431.338 463.431L431.458 463.522L598.361 587.193C640.784 618.631 700.689 609.76 732.163 567.385C763.637 525.011 754.756 465.174 712.333 433.736V433.729Z" fill="#FF9B00"/>
</g>
<g style="mix-blend-mode:multiply" opacity="0.5">
<path d="M529.64 417.027C561.197 374.538 568.822 326.789 546.672 310.375C524.522 293.962 480.984 315.1 449.427 357.589C417.871 400.077 410.245 447.827 432.396 464.24C454.546 480.653 498.084 459.515 529.64 417.027Z" fill="#FF9B00"/>
</g>
<g style="mix-blend-mode:multiply">
<path d="M250.837 210.724C223.464 247.581 187.027 268.299 163.418 262.278C187.02 268.299 223.464 247.581 250.837 210.724C251.096 210.381 251.342 210.031 251.594 209.688C251.342 210.031 251.089 210.381 250.837 210.724Z" fill="#FF9B00"/>
</g>
<g style="mix-blend-mode:multiply">
<path d="M158.139 260.38C157.579 260.114 157.032 259.82 156.492 259.512C157.032 259.82 157.579 260.107 158.139 260.38Z" fill="#FF9B00"/>
</g>
<g style="mix-blend-mode:multiply">
<path d="M741.907 469.781C743.176 487.811 738.29 506.365 726.738 522.063C700.872 557.205 651.383 564.746 616.208 538.909L426.936 398.034C426.306 399.701 425.717 401.36 425.163 402.999L425.079 403.258C424.532 404.896 424.027 406.528 423.565 408.145C423.565 408.159 423.565 408.166 423.558 408.18C423.333 408.95 423.123 409.72 422.92 410.491C422.899 410.582 422.871 410.666 422.85 410.757C422.436 412.339 422.058 413.914 421.721 415.462C421.707 415.518 421.7 415.567 421.686 415.623C421.532 416.337 421.392 417.044 421.251 417.751C421.23 417.842 421.216 417.94 421.195 418.031C420.908 419.551 420.663 421.049 420.452 422.527C420.438 422.611 420.431 422.695 420.417 422.779C420.326 423.437 420.249 424.088 420.172 424.739C420.158 424.837 420.151 424.935 420.137 425.033C419.976 426.475 419.864 427.89 419.779 429.29C419.779 429.402 419.765 429.514 419.765 429.619C419.737 430.221 419.709 430.817 419.695 431.412C419.695 431.517 419.695 431.615 419.688 431.72C419.66 433.071 419.667 434.401 419.716 435.704C419.716 435.837 419.73 435.963 419.73 436.089C419.751 436.635 419.786 437.181 419.821 437.72C419.828 437.825 419.835 437.923 419.843 438.028C419.892 438.665 419.948 439.303 420.018 439.926C420.018 439.961 420.025 440.003 420.032 440.038C420.095 440.605 420.172 441.165 420.249 441.718C420.27 441.858 420.291 441.998 420.312 442.138C420.389 442.635 420.473 443.133 420.564 443.623C420.586 443.721 420.6 443.819 420.621 443.917C420.733 444.498 420.852 445.072 420.985 445.639C421.006 445.723 421.027 445.8 421.048 445.884C421.16 446.36 421.28 446.83 421.413 447.292C421.455 447.432 421.49 447.572 421.532 447.712C421.665 448.167 421.798 448.615 421.945 449.063C421.973 449.147 422.002 449.231 422.03 449.322C422.205 449.847 422.387 450.365 422.583 450.87C422.625 450.975 422.667 451.08 422.71 451.185C422.864 451.584 423.032 451.983 423.2 452.375C423.256 452.508 423.319 452.648 423.382 452.781C423.572 453.201 423.768 453.614 423.964 454.02C423.999 454.083 424.027 454.153 424.062 454.216C424.301 454.678 424.546 455.141 424.805 455.589C424.869 455.701 424.932 455.806 424.995 455.918C425.198 456.261 425.401 456.597 425.619 456.933C425.696 457.052 425.773 457.178 425.857 457.297C426.116 457.682 426.376 458.067 426.656 458.438C426.684 458.473 426.705 458.508 426.726 458.543C427.028 458.95 427.336 459.342 427.658 459.727C427.743 459.832 427.834 459.937 427.925 460.035C428.17 460.322 428.422 460.609 428.682 460.889C428.78 460.994 428.871 461.099 428.969 461.197C429.313 461.554 429.67 461.911 430.035 462.254C430.385 462.625 430.771 462.969 431.17 463.291C431.233 463.34 431.289 463.396 431.353 463.445L431.395 463.473L431.472 463.529L566.824 563.822L598.375 587.2C599.188 587.802 600.001 588.384 600.828 588.951C601.066 589.119 601.305 589.28 601.543 589.441C602.174 589.868 602.812 590.295 603.45 590.708C603.674 590.855 603.891 590.995 604.116 591.142C604.95 591.674 605.791 592.193 606.639 592.697C606.765 592.767 606.885 592.837 607.011 592.914C607.747 593.348 608.483 593.761 609.226 594.174C609.478 594.314 609.73 594.447 609.983 594.587C610.67 594.958 611.364 595.322 612.058 595.672C612.247 595.77 612.436 595.868 612.626 595.966C613.502 596.401 614.378 596.828 615.261 597.234C615.436 597.318 615.619 597.395 615.794 597.472C616.516 597.801 617.245 598.123 617.974 598.431C618.219 598.536 618.465 598.641 618.71 598.739C619.502 599.068 620.301 599.39 621.1 599.691C621.206 599.733 621.311 599.775 621.423 599.817C622.341 600.167 623.259 600.497 624.185 600.812C624.381 600.882 624.577 600.945 624.781 601.008C625.531 601.26 626.281 601.505 627.038 601.736C627.255 601.806 627.472 601.869 627.69 601.939C629.561 602.506 631.447 603.01 633.339 603.458C633.529 603.5 633.725 603.549 633.921 603.591C634.727 603.773 635.533 603.948 636.34 604.116C636.508 604.151 636.669 604.186 636.837 604.215C638.772 604.593 640.714 604.915 642.662 605.174C642.831 605.195 643.006 605.216 643.174 605.237C644.071 605.349 644.962 605.454 645.859 605.545C645.936 605.552 646.006 605.559 646.083 605.566C647.1 605.664 648.116 605.748 649.139 605.811C649.161 605.811 649.182 605.811 649.203 605.811C650.163 605.874 651.123 605.916 652.084 605.951C652.217 605.951 652.35 605.958 652.476 605.965C654.488 606.021 656.507 606.021 658.512 605.958C658.554 605.958 658.589 605.958 658.631 605.958C659.598 605.923 660.572 605.874 661.54 605.811C661.617 605.811 661.701 605.804 661.778 605.797C663.811 605.657 665.837 605.461 667.863 605.195C667.898 605.195 667.94 605.188 667.975 605.181C668.977 605.048 669.98 604.901 670.975 604.733C670.989 604.733 670.996 604.733 671.01 604.733C673.05 604.397 675.076 603.99 677.095 603.521C677.123 603.521 677.151 603.507 677.179 603.5C680.2 602.793 683.193 601.946 686.137 600.945C686.151 600.945 686.172 600.931 686.186 600.931C689.144 599.929 692.06 598.781 694.92 597.486C694.92 597.486 694.92 597.486 694.927 597.486C709.255 591.009 722.181 580.913 732.212 567.399C753.929 538.153 756.431 500.603 741.956 469.795L741.907 469.781Z" fill="#FF9B00"/>
</g>
<g style="mix-blend-mode:multiply">
<path d="M170.736 151.37C202.21 108.996 245.628 87.9063 267.716 104.276L151.865 18.4421C110.29 -12.3725 51.5693 -3.67633 20.7263 37.851L18.4551 40.9037C-12.3879 82.445 -3.68175 141.092 37.8933 171.899L153.744 257.74C131.656 241.37 139.262 193.752 170.736 151.37Z" fill="#FF9B00"/>
</g>
<g style="mix-blend-mode:multiply">
<path d="M37.894 171.899L153.745 257.741C138.449 246.405 137.398 220.085 148.642 190.902L1.27489 81.2129C-4.33294 114.786 8.64918 150.229 37.894 171.899Z" fill="#FF9B00"/>
</g>
</g>
<defs>
<linearGradient id="paint0_linear_7406_5624" x1="421.539" y1="388.582" x2="445.309" y2="374.842" gradientUnits="userSpaceOnUse">
<stop stop-color="white"/>
<stop offset="1" stop-color="white" stop-opacity="0"/>
</linearGradient>
<linearGradient id="paint1_linear_7406_5624" x1="474.954" y1="339.675" x2="498.724" y2="325.935" gradientUnits="userSpaceOnUse">
<stop stop-color="white"/>
<stop offset="1" stop-color="white" stop-opacity="0"/>
</linearGradient>
<linearGradient id="paint2_linear_7406_5624" x1="473.833" y1="390.5" x2="497.603" y2="376.76" gradientUnits="userSpaceOnUse">
<stop stop-color="white"/>
<stop offset="1" stop-color="white" stop-opacity="0"/>
</linearGradient>
<linearGradient id="paint3_linear_7406_5624" x1="441.637" y1="367.22" x2="478.698" y2="345.8" gradientUnits="userSpaceOnUse">
<stop stop-color="white"/>
<stop offset="1" stop-color="white" stop-opacity="0"/>
</linearGradient>
<linearGradient id="paint4_linear_7406_5624" x1="403.273" y1="328.675" x2="443.57" y2="305.389" gradientUnits="userSpaceOnUse">
<stop stop-color="white"/>
<stop offset="1" stop-color="white" stop-opacity="0"/>
</linearGradient>
<linearGradient id="paint5_linear_7406_5624" x1="341.25" y1="381.531" x2="369.862" y2="364.993" gradientUnits="userSpaceOnUse">
<stop stop-color="white"/>
<stop offset="1" stop-color="white" stop-opacity="0"/>
</linearGradient>
<linearGradient id="paint6_linear_7406_5624" x1="350.93" y1="342.833" x2="385.924" y2="322.605" gradientUnits="userSpaceOnUse">
<stop stop-color="white"/>
<stop offset="1" stop-color="white" stop-opacity="0"/>
</linearGradient>
<linearGradient id="paint7_linear_7406_5624" x1="353.866" y1="226.114" x2="378.645" y2="211.785" gradientUnits="userSpaceOnUse">
<stop stop-color="white"/>
<stop offset="1" stop-color="white" stop-opacity="0"/>
</linearGradient>
<linearGradient id="paint8_linear_7406_5624" x1="309.943" y1="244.22" x2="352.742" y2="219.483" gradientUnits="userSpaceOnUse">
<stop stop-color="white"/>
<stop offset="1" stop-color="white" stop-opacity="0"/>
</linearGradient>
<linearGradient id="paint9_linear_7406_5624" x1="280.026" y1="147.855" x2="307.593" y2="131.92" gradientUnits="userSpaceOnUse">
<stop stop-color="white"/>
<stop offset="1" stop-color="white" stop-opacity="0"/>
</linearGradient>
<linearGradient id="paint10_linear_7406_5624" x1="145.585" y1="158.183" x2="173.153" y2="142.255" gradientUnits="userSpaceOnUse">
<stop stop-color="white"/>
<stop offset="1" stop-color="white" stop-opacity="0"/>
</linearGradient>
<linearGradient id="paint11_linear_7406_5624" x1="270.891" y1="197.281" x2="313.697" y2="172.543" gradientUnits="userSpaceOnUse">
<stop stop-color="white"/>
<stop offset="1" stop-color="white" stop-opacity="0"/>
</linearGradient>
<linearGradient id="paint12_linear_7406_5624" x1="307.006" y1="302.923" x2="349.804" y2="278.185" gradientUnits="userSpaceOnUse">
<stop stop-color="white"/>
<stop offset="1" stop-color="white" stop-opacity="0"/>
</linearGradient>
<linearGradient id="paint13_linear_7406_5624" x1="175.062" y1="164.212" x2="215.359" y2="140.919" gradientUnits="userSpaceOnUse">
<stop stop-color="white"/>
<stop offset="1" stop-color="white" stop-opacity="0"/>
</linearGradient>
<linearGradient id="paint14_linear_7406_5624" x1="218.522" y1="212.6" x2="261.32" y2="187.856" gradientUnits="userSpaceOnUse">
<stop stop-color="white"/>
<stop offset="1" stop-color="white" stop-opacity="0"/>
</linearGradient>
<linearGradient id="paint15_linear_7406_5624" x1="258.919" y1="321.26" x2="301.717" y2="296.516" gradientUnits="userSpaceOnUse">
<stop stop-color="white"/>
<stop offset="1" stop-color="white" stop-opacity="0"/>
</linearGradient>
<linearGradient id="paint16_linear_7406_5624" x1="214.098" y1="276.337" x2="256.904" y2="251.593" gradientUnits="userSpaceOnUse">
<stop stop-color="white"/>
<stop offset="1" stop-color="white" stop-opacity="0"/>
</linearGradient>
<linearGradient id="paint17_linear_7406_5624" x1="179.673" y1="286.63" x2="208.291" y2="270.091" gradientUnits="userSpaceOnUse">
<stop stop-color="white"/>
<stop offset="1" stop-color="white" stop-opacity="0"/>
</linearGradient>
<linearGradient id="paint18_linear_7406_5624" x1="263.091" y1="366.891" x2="291.709" y2="350.345" gradientUnits="userSpaceOnUse">
<stop stop-color="white"/>
<stop offset="1" stop-color="white" stop-opacity="0"/>
</linearGradient>
<linearGradient id="paint19_linear_7406_5624" x1="423.432" y1="276.659" x2="458.426" y2="256.439" gradientUnits="userSpaceOnUse">
<stop stop-color="white"/>
<stop offset="1" stop-color="white" stop-opacity="0"/>
</linearGradient>
<clipPath id="clip0_7406_5624">
<rect width="751" height="606" fill="white"/>
</clipPath>
</defs>
</svg>
