<svg width="156" height="40" viewBox="0 0 156 40" fill="none" xmlns="http://www.w3.org/2000/svg">
<g id="Layer_1" clip-path="url(#clip0_9015_25181)">
<g id="Group 5">
<path id="Vector" d="M150.375 17.3071V19.7116C149.393 18.7302 148.343 17.9843 147.194 17.4936C146.045 17.0029 144.818 16.7477 143.512 16.7477C140.665 16.7477 138.25 17.8273 136.266 19.9766C134.273 22.126 133.292 24.8838 133.292 28.2502C133.292 31.6165 134.313 34.2075 136.374 36.3863C138.436 38.5651 140.861 39.6643 143.679 39.6643C144.936 39.6643 146.094 39.4386 147.174 38.997C148.245 38.5455 149.325 37.8192 150.385 36.8083V39.1147H155.834V17.3267H150.385L150.375 17.3071ZM148.932 32.8531C147.793 34.0505 146.369 34.6492 144.651 34.6492C142.933 34.6492 141.578 34.0407 140.439 32.8237C139.3 31.6067 138.731 30.0658 138.731 28.1815C138.731 26.2971 139.29 24.7857 140.41 23.5883C141.529 22.391 142.943 21.8021 144.632 21.8021C146.32 21.8021 147.803 22.391 148.932 23.5687C150.071 24.7366 150.63 26.2775 150.63 28.1717C150.63 30.0658 150.061 31.6754 148.932 32.863" fill="#4E1E6A"/>
<path id="Vector_2" d="M130.637 17.3074H125.149V39.0954H130.637V17.3074Z" fill="#4E1E6A"/>
<path id="Vector_3" d="M113.533 9.28906H118.982V17.3074H122.222V22.0184H118.982V39.0954H113.533V22.0184H110.734V17.3074H113.533V9.28906Z" fill="#4E1E6A"/>
<path id="Vector_4" d="M88.1772 17.3071H93.6263V19.535C94.8732 18.4848 95.9925 17.7684 97.0038 17.366C98.0052 16.9538 99.0362 16.7477 100.097 16.7477C102.266 16.7477 104.093 17.5034 105.605 19.0148C106.881 20.2907 107.499 22.1849 107.499 24.6974V39.0853H102.09V29.5359C102.09 26.935 101.972 25.2077 101.746 24.344C101.51 23.4902 101.108 22.8424 100.519 22.391C99.9394 21.9493 99.2325 21.7236 98.3685 21.7236C97.2591 21.7236 96.3067 22.0965 95.5114 22.8326C94.7162 23.5687 94.1663 24.5992 93.862 25.9045C93.7049 26.5915 93.6263 28.0637 93.6263 30.3308V39.0755H88.1772V17.2875V17.3071Z" fill="#4E1E6A"/>
<path id="Vector_5" d="M84.3954 28.7409C84.3954 25.139 83.3154 22.2438 81.1652 20.0453C79.015 17.8469 76.2267 16.7477 72.7903 16.7477C69.57 16.7477 66.8798 17.8469 64.7296 20.0453C62.5892 22.2438 61.519 25.0016 61.519 28.3287C61.519 31.6558 62.5892 34.2664 64.7492 36.4256C66.8994 38.5749 69.678 39.6545 73.0947 39.6545C75.3038 39.6545 77.1987 39.262 78.799 38.4866C80.4092 37.7015 81.774 36.4943 82.9227 34.8749L78.318 32.7059C76.8452 34.1388 75.0976 34.8553 73.0456 34.8553C71.3372 34.8553 69.9332 34.394 68.8336 33.4813C67.7339 32.5685 67.0467 31.3319 66.8012 29.791H84.3659L84.3856 28.7409H84.3954ZM67.0467 25.4825C67.6652 24.1379 68.3329 23.1958 69.0496 22.656C70.1983 21.8021 71.5336 21.3703 73.0554 21.3703C74.4594 21.3703 75.6965 21.753 76.7569 22.5087C77.8172 23.2743 78.5241 24.2557 78.8874 25.4727H67.0467V25.4825Z" fill="#4E1E6A"/>
<path id="Vector_6" d="M38.9624 17.3074H44.5293L50.0373 30.1643L55.5159 17.3074H61.0631L51.7849 39.0954H48.2504L38.9624 17.3074Z" fill="#4E1E6A"/>
<path id="Vector_7" d="M18.4561 17.3071H23.9051V19.535C25.1521 18.4848 26.2713 17.7684 27.2826 17.366C28.2841 16.9538 29.315 16.7477 30.3753 16.7477C32.5451 16.7477 34.3713 17.5034 35.8833 19.0148C37.1499 20.2907 37.7881 22.1849 37.7881 24.6974V39.0853H32.3782V29.5359C32.3782 26.935 32.2604 25.2077 32.0346 24.344C31.799 23.4902 31.3964 22.8424 30.8073 22.391C30.2281 21.9493 29.5113 21.7236 28.6571 21.7236C27.5477 21.7236 26.5953 22.0965 25.8001 22.8326C25.0048 23.5687 24.455 24.5992 24.1506 25.9045C23.9935 26.5915 23.915 28.0637 23.915 30.3308V39.0755H18.4659V17.2875L18.4561 17.3071Z" fill="#4E1E6A"/>
<path id="Vector_8" d="M14.9727 17.3075H9.48438V39.0955H14.9727V17.3075Z" fill="#4E1E6A"/>
</g>
<path id="Vector_9" d="M15.0022 0.397217H0V15.4035H15.0022V0.397217Z" fill="#FFAB00"/>
<path id="Vector_10" fill-rule="evenodd" clip-rule="evenodd" d="M12.2234 9.83875C13.7649 9.83875 15.0118 11.0852 15.0118 12.626C15.0118 14.1669 13.7649 15.4133 12.2234 15.4133C10.682 15.4133 9.43506 14.1669 9.43506 12.626C9.43506 11.0852 10.682 9.83875 12.2234 9.83875Z" fill="white"/>
<path id="Vector_11" fill-rule="evenodd" clip-rule="evenodd" d="M127.877 9.83838C129.418 9.83838 130.665 11.0848 130.665 12.6257C130.665 14.1665 129.418 15.413 127.877 15.413C126.335 15.413 125.088 14.1665 125.088 12.6257C125.088 11.0848 126.335 9.83838 127.877 9.83838Z" fill="#FFAB00"/>
</g>
<defs>
<clipPath id="clip0_9015_25181">
<rect width="156" height="40" fill="white"/>
</clipPath>
</defs>
</svg>
