<svg width="50" height="40" viewBox="0 0 50 40" fill="none" xmlns="http://www.w3.org/2000/svg">
<g id="Layer_1" clip-path="url(#clip0_9015_25024)">
<path id="Vector" d="M26.8723 13.0329C26.2596 13.2371 25.288 13.4805 23.9596 13.7651C22.6311 14.0519 21.7668 14.3304 21.3563 14.5985C20.7333 15.0462 20.4218 15.6031 20.4218 16.2838C20.4218 16.9646 20.6673 17.5339 21.1706 18.0207C21.6678 18.5096 22.3052 18.7551 23.0746 18.7551C23.941 18.7551 24.7599 18.4704 25.5479 17.9073C26.1276 17.4782 26.5071 16.9481 26.6845 16.321C26.8124 15.9146 26.8723 15.1349 26.8723 13.99V13.0349V13.0329ZM30.2305 21.7194H27.8748C27.7531 21.3996 27.5963 20.9293 27.4168 20.3063C27.3405 20.0217 27.2848 19.836 27.2498 19.7411C26.4267 20.5394 25.5582 21.1315 24.6259 21.5337C23.6976 21.9277 22.7013 22.1257 21.643 22.1257C20.7271 22.1257 19.902 22.002 19.1718 21.7565L24.6382 24.7001L30.2305 21.7173V21.7194ZM21.8431 3.3562C22.4867 3.26543 23.1943 3.22005 23.9596 3.22005C26.0987 3.22005 27.685 3.47584 28.7309 3.98123C29.7705 4.48662 30.509 5.12609 30.936 5.90583C31.3589 6.68351 31.5755 8.10892 31.5755 10.1903L31.5239 15.7764C31.5239 17.3627 31.5982 18.5364 31.7549 19.2935C31.8436 19.737 31.9818 20.2011 32.1654 20.6879L45.9966 13.3155L24.7599 1.80909L21.8431 3.3562ZM20.4714 9.15064L16.1271 8.36471C16.42 7.32092 16.8326 6.44423 17.373 5.72431L3.28193 13.1958L17.5545 20.886C17.4493 20.7993 17.3441 20.7106 17.2451 20.6178C16.1683 19.605 15.6361 18.326 15.6361 16.7789C15.6361 15.762 15.8775 14.8523 16.3664 14.0478C16.8552 13.2453 17.5401 12.6347 18.4189 12.2098C19.2976 11.7848 20.5704 11.4156 22.2268 11.0938C24.4608 10.6751 26.01 10.279 26.8743 9.918V9.44149C26.8743 8.51735 26.6453 7.86757 26.1957 7.47151C25.7398 7.07957 24.8878 6.88361 23.6233 6.88361C22.7714 6.88361 22.1072 7.05069 21.6307 7.38693C21.1521 7.71698 20.7705 8.30695 20.4734 9.15064M38.0878 40V29.426H41.6585L43.874 37.0605L46.075 29.426H49.7179V40H47.6242V31.0618L44.86 40H42.8797L40.1196 31.0618V40H38.0919H38.0878ZM29.2816 40V29.426H36.2911V31.1753H31.5734V33.6713H35.9981V35.3917H31.5734V38.2342H36.454V40H29.2796H29.2816ZM19.6318 40V29.426H21.8803V33.989L25.3313 29.426H27.8707L24.1555 34.1561L28.2317 40H25.6119L21.8803 34.5212V40H19.6318ZM11.2774 40V29.426H13.5259V38.2095H18.2971V40H11.2774ZM3.52947 35.9899H6.58244L5.12815 31.5115L3.52947 35.9899ZM0 40L3.83683 29.426H6.50405L10.1862 40H7.88613L7.13321 37.7247H2.95601L2.13089 40H0ZM0.200093 13.1628L24.7104 0L48.9382 13.3031L24.5702 26.4679L0.200093 13.1628Z" fill="#222222"/>
</g>
<defs>
<clipPath id="clip0_9015_25024">
<rect width="49.7138" height="40" fill="white"/>
</clipPath>
</defs>
</svg>
