<svg width="73" height="20" viewBox="0 0 73 20" fill="none" xmlns="http://www.w3.org/2000/svg">
<g id="Frame" clip-path="url(#clip0_9015_25029)">
<path id="Vector" d="M25.8235 6.62872C24.1724 5.9824 22.4143 5.65234 20.6411 5.65579C16.6672 5.65579 13.8779 8.31276 13.8779 12.499C13.8779 16.733 16.298 19.3423 20.5875 19.3423C22.3864 19.3546 24.1687 18.9971 25.8235 18.292C26.035 18.215 26.2147 18.0694 26.3338 17.8786C26.453 17.6877 26.5049 17.4625 26.4814 17.2388V7.68199C26.4814 7.07502 26.2462 6.78642 25.8235 6.62872ZM23.0611 15.2274C23.0611 15.6231 22.8497 15.8076 22.4033 15.9385C21.8226 16.1037 21.2209 16.1839 20.6172 16.1766C18.9324 16.1766 17.3428 15.1769 17.3428 12.4931C17.3428 9.80932 18.9205 8.81262 20.6172 8.81262C21.2208 8.80436 21.8224 8.88354 22.4033 9.04767C22.8497 9.17859 23.0611 9.36304 23.0611 9.75877V15.2274Z" fill="#222222"/>
<path id="Vector_2" d="M3.66788 10.0483C3.66788 9.24495 4.48348 8.7332 5.87956 8.7332C7.22206 8.7332 8.51097 9.17949 9.85345 9.92331C9.97236 9.99349 10.1084 10.0296 10.2465 10.0275C10.3695 10.0259 10.4898 9.99095 10.5946 9.92658C10.6995 9.86213 10.7848 9.77049 10.8417 9.66149L11.6574 7.9239C11.7239 7.78438 11.7595 7.63214 11.7615 7.4776C11.7618 7.36945 11.7325 7.26327 11.677 7.17048C11.6214 7.07769 11.5415 7.00179 11.446 6.95096C9.782 6.02201 7.90458 5.54212 5.99863 5.55851C2.47421 5.55851 0.211914 7.45083 0.211914 10.2923C0.211914 15.868 8.68364 13.7079 8.68364 17.5759C8.68643 17.9068 8.63308 18.2358 8.52586 18.5489C8.50988 18.5999 8.50087 18.6529 8.49908 18.7065C8.49655 18.7579 8.50528 18.8093 8.52466 18.857C8.54405 18.9048 8.57363 18.9478 8.61132 18.9829C8.64902 19.0179 8.69395 19.0445 8.74294 19.0605C8.79193 19.0764 8.8438 19.0816 8.89497 19.0754H11.2615C11.6574 19.0754 11.8151 18.9445 11.9461 18.5489C12.0925 18.0667 12.1638 17.5649 12.1575 17.0611C12.1426 11.0748 3.66788 12.5119 3.66788 10.0483Z" fill="#222222"/>
<path id="Vector_3" d="M35.6371 5.65576C33.8329 5.66817 32.044 5.98814 30.3475 6.60192C30.136 6.67899 29.9564 6.82453 29.8372 7.01538C29.718 7.20623 29.666 7.43143 29.6897 7.65518V18.542C29.6853 18.6122 29.6959 18.6826 29.7208 18.7485C29.7458 18.8143 29.7845 18.8741 29.8343 18.924C29.8841 18.9738 29.9439 19.0124 30.0098 19.0373C30.0757 19.0623 30.1462 19.073 30.2165 19.0686H32.5978C32.6682 19.073 32.7387 19.0623 32.8046 19.0373C32.8705 19.0124 32.9303 18.9738 32.9801 18.924C33.0299 18.8741 33.0686 18.8143 33.0936 18.7485C33.1185 18.6826 33.1291 18.6122 33.1247 18.542V9.70523C33.1247 9.31241 33.3331 9.12795 33.7558 9.02086C34.3928 8.86669 35.0474 8.79667 35.7026 8.81259C37.1225 8.81259 38.2537 9.47013 38.2537 11.047V18.542C38.2493 18.6122 38.2599 18.6826 38.2848 18.7485C38.3098 18.8143 38.3485 18.8741 38.3983 18.924C38.4481 18.9738 38.5079 19.0124 38.5738 19.0373C38.6397 19.0623 38.7102 19.073 38.7805 19.0686H41.1619C41.2319 19.0725 41.3021 19.0615 41.3677 19.0364C41.4332 19.0112 41.4927 18.9725 41.5421 18.9228C41.5917 18.873 41.63 18.8134 41.6547 18.7478C41.6796 18.6821 41.6901 18.612 41.6858 18.542V10.6008C41.662 7.39038 39.6885 5.65576 35.6371 5.65576Z" fill="#222222"/>
<path id="Vector_4" d="M50.7144 5.65576C46.7673 5.65576 44.1895 8.52101 44.1895 12.499C44.1895 16.477 46.7673 19.3423 50.8989 19.3423C54.8461 19.3423 57.4239 16.477 57.4239 12.499C57.4239 8.52101 54.8461 5.65576 50.7144 5.65576ZM50.8989 16.1765C48.9522 16.1765 47.6633 14.912 47.6633 12.493C47.6633 10.0741 48.9522 8.81259 50.7144 8.81259C52.6612 8.81259 53.9501 10.0741 53.9501 12.493C53.9501 14.912 52.6612 16.1765 50.8989 16.1765Z" fill="#222222"/>
<path id="Vector_5" d="M72.0784 5.9165H69.712C69.421 5.9165 69.1851 6.15229 69.1851 6.44314V18.5409C69.1851 18.8317 69.421 19.0675 69.712 19.0675H72.0784C72.3694 19.0675 72.6053 18.8317 72.6053 18.5409V6.44314C72.6053 6.15229 72.3694 5.9165 72.0784 5.9165Z" fill="#222222"/>
<path id="Vector_6" d="M67.0269 0.842014C66.4846 0.714135 65.9289 0.652198 65.3718 0.657545C62.0974 0.657545 59.978 2.39514 59.978 6.18274V18.5423C59.9737 18.6123 59.9843 18.6825 60.0091 18.7481C60.0338 18.8137 60.0722 18.8734 60.1217 18.9231C60.1712 18.9729 60.2306 19.0116 60.2962 19.0367C60.3617 19.0618 60.4318 19.0728 60.5019 19.0689H62.8446C62.9149 19.0733 62.9853 19.0626 63.0512 19.0376C63.1172 19.0127 63.177 18.9741 63.2268 18.9243C63.2766 18.8745 63.3153 18.8147 63.3403 18.7488C63.3652 18.683 63.3758 18.6125 63.3714 18.5423V8.81292H66.7113C66.7822 8.81931 66.8535 8.81009 66.9203 8.78589C66.9872 8.76168 67.0478 8.72308 67.0981 8.67284C67.1483 8.6226 67.1869 8.56194 67.2112 8.49514C67.2353 8.42834 67.2446 8.35706 67.2382 8.2863V6.47134C67.2472 6.39881 67.2401 6.32519 67.2172 6.2558C67.1942 6.18639 67.1562 6.12294 67.1058 6.07C67.0554 6.01707 66.9939 5.97597 66.9257 5.94968C66.8574 5.92338 66.7842 5.91253 66.7113 5.91793H63.3714V5.6204C63.3714 4.17439 64.0025 3.4365 65.4552 3.4365C65.9821 3.4365 66.5476 3.57039 66.7441 3.57039C67.0596 3.57039 67.1906 3.38592 67.2442 3.07053L67.5091 1.70189C67.5354 1.58943 67.5523 1.47498 67.5597 1.35972C67.5538 1.07706 67.396 0.92235 67.0269 0.842014Z" fill="#222222"/>
<path id="Vector_7" d="M1.78603 15.7056C0.708458 15.7056 0 16.3869 0 17.5175C0 18.6481 0.711444 19.3325 1.86938 19.3325C2.94695 19.3325 3.65542 18.6243 3.65542 17.5175C3.65542 16.4107 2.94397 15.7056 1.78603 15.7056Z" fill="#222222"/>
<path id="Vector_8" d="M70.8578 0.662598C69.7772 0.662598 69.0718 1.34693 69.0718 2.47756C69.0718 3.60818 69.7832 4.2925 70.9411 4.2925C72.0188 4.2925 72.7272 3.58141 72.7272 2.47756C72.7272 1.37371 72.0128 0.662598 70.8578 0.662598Z" fill="#222222"/>
</g>
<defs>
<clipPath id="clip0_9015_25029">
<rect width="72.7273" height="20" fill="white"/>
</clipPath>
</defs>
</svg>
