<svg width="60" height="20" viewBox="0 0 60 20" fill="none" xmlns="http://www.w3.org/2000/svg">
<g id="Group 48095654">
<path id="Layer" fill-rule="evenodd" clip-rule="evenodd" d="M20.4232 19.7182C18.8818 19.6916 17.1234 19.6649 15.5668 19.6649H13.8998C13.6219 19.0636 13.9264 18.4242 14.0025 17.6478C11.7456 19.3186 9.37066 20.1216 6.1508 19.9846C1.41237 19.7791 -0.821736 18.2567 0.274384 16.0112C1.62931 13.2405 6.82446 11.8438 16.0273 11.6497C16.0425 11.6268 16.0654 11.5735 16.0768 11.5507C17.5154 8.60492 16.3851 7.18912 13.4621 7.18912C10.4287 7.18532 7.81021 8.63918 5.26021 11.5317H4.72737L4.79968 7.60016C5.62177 7.38703 6.45033 7.1994 7.28498 7.03689C8.11963 6.87704 8.95847 6.74269 9.80073 6.63346C10.643 6.5269 11.4879 6.44583 12.3355 6.38988C13.1831 6.33394 14.0318 6.30615 14.8817 6.30615C18.486 6.30996 20.8495 6.90749 21.8048 7.98456C22.8742 9.13395 22.6078 10.5536 21.6183 12.5783L21.0588 13.7239C19.3271 17.271 18.5507 18.8619 20.6325 19.1854L20.4232 19.7182ZM14.8018 12.4832C10.6685 12.7229 7.97386 13.6706 6.8511 15.9656C5.96431 17.7886 6.91961 18.8428 8.46864 18.8885C11.4639 18.9798 13.4316 16.9703 15.2813 13.1758L15.6619 12.506C15.5908 12.501 15.5184 12.4957 15.445 12.4908C15.3738 12.4858 15.303 12.482 15.2319 12.4793C15.1584 12.4767 15.0861 12.4755 15.0149 12.4755C14.9437 12.4782 14.873 12.4805 14.8018 12.4832Z" fill="#222222"/>
<path id="Layer_2" d="M20.7012 19.3568C23.2436 18.8621 23.6736 17.549 25.059 14.6527C25.177 14.4015 25.3102 14.1275 25.4396 13.8535L27.099 10.3825C27.7841 9.30541 28.0048 7.94289 26.1209 7.84013L26.2541 7.48237C29.1466 7.25782 32.2219 7.09036 34.3342 6.71738L33.1962 9.40055C35.5216 7.25402 38.1021 6.42052 41.2953 6.42433C46.4562 6.42814 47.8796 8.22453 45.7863 12.3235L45.1203 13.7241C44.9871 13.9981 44.8577 14.2721 44.7359 14.5233C43.3429 17.4425 42.2163 18.9534 44.7359 19.334V19.7641C43.027 19.6879 40.8652 19.6575 39.1944 19.6537C37.7481 19.6537 36.0659 19.6765 34.1363 19.7526L34.2657 19.4786C36.7205 19.0029 37.5122 17.6556 38.7529 15.0599C38.9329 14.687 39.1248 14.2873 39.3276 13.8611L39.8871 12.6889C41.4856 9.34346 41.124 7.77162 38.3381 7.76782C35.6282 7.76782 33.8051 9.59846 32.3246 12.6927L31.7651 13.8649C31.6662 14.0666 31.571 14.2645 31.4873 14.4396C29.9992 17.5604 29.3674 18.9268 31.4911 19.3759L31.3617 19.7564C29.6528 19.6841 26.943 19.6461 25.2722 19.6461C23.8259 19.6461 22.5014 19.6651 20.5718 19.7374L20.7012 19.3568Z" fill="#222222"/>
<path id="Layer_3" d="M56.7665 11.2502L55.5143 13.8725C55.3735 14.1731 55.2555 14.4548 55.1223 14.6946C52.9187 18.6603 53.3488 18.9534 55.4116 19.3796L55.1604 19.7602C53.4515 19.6841 51.6703 19.6613 49.9995 19.6613C48.5532 19.6613 46.6655 19.6917 44.7358 19.764L44.869 19.334C47.3734 18.8392 47.9062 17.6479 49.2079 14.9267C49.3639 14.6032 49.5314 14.2531 49.695 13.9029L51.3544 10.4319C52.2032 8.66218 52.0167 8.08749 50.422 7.8401L50.5323 7.43668C53.5124 7.18929 56.7437 7.03325 59.0615 6.68311C58.247 8.15599 57.5201 9.67836 56.7665 11.2502Z" fill="#222222"/>
<path id="Layer_4" d="M56.6599 0C58.521 0 59.4992 1.06185 58.875 2.49287C58.247 3.9277 56.3478 4.98575 54.4867 4.98194C52.5418 4.98194 51.636 3.95435 52.2754 2.48907C52.8996 1.05804 54.7988 0 56.6599 0Z" fill="#222222"/>
</g>
</svg>
