<svg width="78" height="20" viewBox="0 0 78 20" fill="none" xmlns="http://www.w3.org/2000/svg">
<g id="Layer_1" clip-path="url(#clip0_9015_25006)">
<g id="Group" opacity="0.48">
<g id="Group_2">
<g id="Clip path group">
<mask id="mask0_9015_25006" style="mask-type:luminance" maskUnits="userSpaceOnUse" x="0" y="0" width="20" height="20">
<g id="clippath">
<path id="Vector" d="M19.9351 0.0600586H0.0600586V19.9351H19.9351V0.0600586Z" fill="white"/>
</g>
</mask>
<g mask="url(#mask0_9015_25006)">
<g id="Group_3">
<g id="Vector_2">
<path d="M3.44347 4.8305C5.34852 5.21872 7.61775 3.86896 10.0012 2.89781C12.3858 3.86896 14.655 5.21872 16.5601 4.8305C17.2692 4.68627 17.8329 3.82689 17.256 3.21031C17.2199 3.17185 17.1814 3.13579 17.1454 3.09853L17.1754 3.11656C15.3028 1.16103 12.7127 0.0576635 10.006 0.0600674H9.99756C7.28963 0.0564616 4.69708 1.16103 2.82448 3.11656L2.85453 3.09853C2.81847 3.13579 2.78001 3.17185 2.74395 3.21031C2.16703 3.82689 2.72953 4.68627 3.43987 4.8305M19.9266 9.58411L19.9194 9.46391C19.9194 9.36776 19.9086 9.27161 19.9002 9.17545C19.9002 9.12978 19.8918 9.08411 19.887 9.03843C19.8786 8.94709 19.869 8.85574 19.8569 8.76439C19.8569 8.71872 19.8461 8.67425 19.8401 8.62858L19.8221 8.49396C19.8221 8.46512 19.8113 8.43507 19.8052 8.40502C19.7992 8.37497 19.7944 8.32329 19.786 8.28483V8.29204C19.6754 7.72353 19.5036 7.19348 19.2379 6.88939C17.7259 5.15382 13.8629 6.54084 9.99876 7.97113C7.47472 7.03843 4.95068 6.12257 3.07809 6.08531C1.63578 6.05646 0.527607 6.93387 0.215107 8.30526V8.28843C0.205491 8.34252 0.19828 8.39901 0.189866 8.4531C0.189866 8.46992 0.182655 8.48435 0.180251 8.49997C0.173039 8.54444 0.168232 8.59012 0.162222 8.63459C0.156212 8.67906 0.142991 8.71391 0.138184 8.76079C0.126164 8.85214 0.116549 8.94228 0.108136 9.03363C0.108136 9.0793 0.0985201 9.12617 0.0949144 9.17185C0.0877028 9.268 0.0816932 9.36415 0.0756836 9.46031V9.5805C0.0600586 9.72113 0.0600586 9.85935 0.0600586 9.99757C0.0600586 10.1358 0.0600586 10.3101 0.0720778 10.4651C0.0720778 10.5144 0.0720778 10.5625 0.0816932 10.6105C0.0877028 10.7175 0.0949144 10.8233 0.10453 10.9291L0.122559 11.0949C0.133376 11.1935 0.145395 11.292 0.158616 11.3894C0.16703 11.4459 0.175443 11.5012 0.185059 11.5565C0.194674 11.6118 0.200684 11.667 0.210299 11.7223C0.222318 11.792 0.233135 11.8618 0.246357 11.9315C0.374962 12.4783 0.578087 12.9747 0.894193 13.2668C2.51078 14.7632 6.26318 13.4339 10.0108 12.0649C14.4976 13.6779 18.9759 15.2115 19.7464 11.9339C19.7608 11.8642 19.7704 11.7944 19.7824 11.7247C19.792 11.6694 19.7992 11.6142 19.8077 11.5589L19.8329 11.3918C19.8473 11.2944 19.8581 11.1959 19.8689 11.0973C19.8689 11.042 19.8822 10.9868 19.887 10.9315C19.8966 10.8257 19.9038 10.7187 19.911 10.613C19.911 10.5637 19.9182 10.5168 19.9206 10.4675C19.9278 10.3125 19.9315 10.1562 19.9315 9.99997C19.9315 9.84372 19.9314 9.72353 19.923 9.58651M16.5577 15.167C14.6526 14.7788 12.3834 16.1286 9.99876 17.0997C7.61535 16.1286 5.34612 14.78 3.44107 15.167C2.72953 15.3113 2.16943 16.1706 2.74515 16.7872L2.84732 16.8906L2.83169 16.8786C2.87857 16.9267 2.92664 16.9723 2.97352 17.0192L3.13578 17.1803C3.19948 17.2416 3.26559 17.3005 3.32929 17.3581C3.39299 17.4158 3.44227 17.4627 3.50116 17.512C3.56006 17.5613 3.63939 17.6322 3.7091 17.6863C3.77881 17.7404 3.82208 17.78 3.87977 17.8257C3.95669 17.8858 4.03482 17.9459 4.11294 18C4.16583 18.0396 4.21871 18.0805 4.2728 18.1202C4.36054 18.1827 4.45068 18.2404 4.53963 18.3005C4.5865 18.3317 4.63217 18.3642 4.68025 18.3942C4.78121 18.4591 4.88578 18.5204 4.99035 18.5817L5.10092 18.6478C5.22112 18.7151 5.34131 18.7788 5.4615 18.8413C5.48794 18.8533 5.51198 18.8678 5.53722 18.881C5.67424 18.9495 5.81366 19.0156 5.95309 19.0781L5.98554 19.0925C7.24876 19.6526 8.61535 19.9411 9.99636 19.9399H10.0048C12.7115 19.9423 15.3016 18.8389 17.1742 16.8834L17.1442 16.9014C17.1803 16.8642 17.2187 16.8281 17.2548 16.7896C17.8317 16.173 17.268 15.3137 16.5589 15.1694" fill="#F8F7F1"/>
<path d="M3.44347 4.8305C5.34852 5.21872 7.61775 3.86896 10.0012 2.89781C12.3858 3.86896 14.655 5.21872 16.5601 4.8305C17.2692 4.68627 17.8329 3.82689 17.256 3.21031C17.2199 3.17185 17.1815 3.13579 17.1454 3.09853L17.1754 3.11656C15.3028 1.16103 12.7127 0.0576635 10.006 0.0600674H9.99756C7.28963 0.0564616 4.69708 1.16103 2.82448 3.11656L2.85453 3.09853C2.81847 3.13579 2.78001 3.17185 2.74395 3.21031C2.16703 3.82689 2.72953 4.68627 3.43987 4.8305M19.9266 9.58411L19.9194 9.46391C19.9194 9.36776 19.9086 9.27161 19.9002 9.17545C19.9002 9.12978 19.8918 9.08411 19.887 9.03843C19.8786 8.94709 19.869 8.85574 19.8569 8.76439C19.8569 8.71872 19.8461 8.67425 19.8401 8.62858L19.8221 8.49396C19.8221 8.46512 19.8113 8.43507 19.8052 8.40502C19.7992 8.37497 19.7944 8.32329 19.786 8.28483V8.29204C19.6754 7.72353 19.5036 7.19348 19.2379 6.88939C17.7259 5.15382 13.8629 6.54084 9.99876 7.97113C7.47472 7.03843 4.95068 6.12257 3.07809 6.08531C1.63578 6.05646 0.527607 6.93387 0.215107 8.30526V8.28843C0.205491 8.34252 0.19828 8.39901 0.189866 8.4531C0.189866 8.46992 0.182655 8.48435 0.180251 8.49997C0.173039 8.54444 0.168232 8.59012 0.162222 8.63459C0.156212 8.67906 0.142991 8.71391 0.138184 8.76079C0.126164 8.85214 0.116549 8.94228 0.108136 9.03363C0.108136 9.0793 0.0985201 9.12617 0.0949144 9.17185C0.0877028 9.268 0.0816932 9.36415 0.0756836 9.46031V9.5805C0.0600586 9.72113 0.0600586 9.85935 0.0600586 9.99757C0.0600586 10.1358 0.0600586 10.3101 0.0720778 10.4651C0.0720778 10.5144 0.0720778 10.5625 0.0816932 10.6105C0.0877028 10.7175 0.0949144 10.8233 0.10453 10.9291L0.122559 11.0949C0.133376 11.1935 0.145395 11.292 0.158616 11.3894C0.16703 11.4459 0.175443 11.5012 0.185059 11.5565C0.194674 11.6118 0.200684 11.667 0.210299 11.7223C0.222318 11.792 0.233135 11.8618 0.246357 11.9315C0.374962 12.4783 0.578087 12.9747 0.894193 13.2668C2.51078 14.7632 6.26318 13.4339 10.0108 12.0649C14.4976 13.6779 18.9759 15.2115 19.7464 11.9339C19.7608 11.8642 19.7704 11.7944 19.7824 11.7247C19.792 11.6694 19.7992 11.6142 19.8077 11.5589L19.8329 11.3918C19.8473 11.2944 19.8581 11.1959 19.869 11.0973C19.869 11.042 19.8822 10.9868 19.887 10.9315C19.8966 10.8257 19.9038 10.7187 19.911 10.613C19.911 10.5637 19.9182 10.5168 19.9206 10.4675C19.9278 10.3125 19.9315 10.1562 19.9315 9.99997C19.9315 9.84372 19.9315 9.72353 19.923 9.58651M16.5577 15.167C14.6526 14.7788 12.3834 16.1286 9.99876 17.0997C7.61535 16.1286 5.34612 14.78 3.44107 15.167C2.72953 15.3113 2.16943 16.1706 2.74515 16.7872L2.84732 16.8906L2.83169 16.8786C2.87857 16.9267 2.92664 16.9723 2.97352 17.0192L3.13578 17.1803C3.19948 17.2416 3.26559 17.3005 3.32929 17.3581C3.39299 17.4158 3.44227 17.4627 3.50116 17.512C3.56006 17.5613 3.63939 17.6322 3.7091 17.6863C3.77881 17.7404 3.82208 17.78 3.87977 17.8257C3.95669 17.8858 4.03482 17.9459 4.11294 18C4.16583 18.0396 4.21871 18.0805 4.2728 18.1202C4.36054 18.1827 4.45068 18.2404 4.53963 18.3005C4.5865 18.3317 4.63217 18.3642 4.68025 18.3942C4.78121 18.4591 4.88578 18.5204 4.99035 18.5817L5.10092 18.6478C5.22112 18.7151 5.34131 18.7788 5.4615 18.8413C5.48794 18.8533 5.51198 18.8678 5.53722 18.881C5.67424 18.9495 5.81366 19.0156 5.95309 19.0781L5.98554 19.0925C7.24876 19.6526 8.61535 19.9411 9.99636 19.9399H10.0048C12.7115 19.9423 15.3016 18.8389 17.1742 16.8834L17.1442 16.9014C17.1802 16.8642 17.2187 16.8281 17.2548 16.7896C17.8317 16.173 17.268 15.3137 16.5589 15.1694" stroke="#F8F7F1" stroke-miterlimit="10"/>
</g>
</g>
</g>
</g>
</g>
</g>
<path id="Vector_3" d="M9.99761 19.8102H9.99733C7.75722 19.8121 5.59808 19.0456 3.87119 17.6588C5.2166 18.2384 6.82935 18.2117 8.19155 17.8529L8.19162 17.8529C9.34102 17.5493 10.4822 17.041 11.5751 16.5543C11.9406 16.3915 12.3006 16.2312 12.6537 16.0817C14.0763 15.4794 15.382 15.0554 16.5351 15.2872C16.8513 15.3516 17.1381 15.5775 17.2787 15.8543C17.4162 16.1248 17.4117 16.4354 17.1646 16.6995L17.1645 16.6996C15.3107 18.6863 12.7153 19.8137 9.99761 19.8102Z" fill="#222222" stroke="#F8F7F1" stroke-width="0.25" stroke-miterlimit="10"/>
<path id="Vector_4" d="M17.1646 3.29559L17.1647 3.29571C17.4119 3.55985 17.4163 3.8704 17.2789 4.14092C17.1383 4.41772 16.8514 4.64369 16.5352 4.70801L16.5351 4.70802C15.799 4.85795 14.9979 4.73941 14.1397 4.474C13.3193 4.22026 12.4589 3.83644 11.565 3.43769C11.5236 3.41922 11.4822 3.40072 11.4406 3.3822C9.57505 2.55046 7.56543 1.6748 5.57266 1.89738L5.57207 1.89745C4.92536 1.97283 4.29794 2.16259 3.71878 2.45571C5.47204 0.993494 7.69192 0.18302 9.99749 0.185067L9.99776 0.185067C12.7154 0.181507 15.3109 1.30892 17.1646 3.29559Z" fill="#222222" stroke="#F8F7F1" stroke-width="0.25" stroke-miterlimit="10"/>
<path id="Vector_5" d="M16.6272 2.79084C16.6617 2.81147 16.697 2.8323 16.7326 2.85314C16.7023 2.82458 16.6719 2.79623 16.6413 2.76809L16.6272 2.79084ZM16.6272 2.79084C15.9554 2.37617 15.2017 2.11295 14.4181 2.02161L16.641 2.76784L16.6272 2.79084ZM16.8079 2.75238C16.7683 2.72924 16.7294 2.70633 16.6921 2.68401L16.8079 2.75238ZM16.8079 2.75238C14.9714 1.02461 12.5397 0.0578168 10.0058 0.0600671C7.25343 0.0564613 4.62482 1.19829 2.74742 3.21031C2.1705 3.82689 2.733 4.68627 3.44333 4.8305L16.8079 2.75238ZM2.8387 3.29571L2.83881 3.29559C4.69256 1.30892 7.28802 0.181507 10.0057 0.185067L10.0059 0.185067C12.3114 0.18302 14.5312 0.993437 16.2845 2.45556C15.7057 2.16253 15.0792 1.97282 14.4326 1.89744L14.432 1.89738C12.4386 1.6748 10.4287 2.55045 8.56296 3.3822C8.5213 3.40077 8.4797 3.41932 8.43818 3.43784C7.54439 3.83654 6.68408 4.2203 5.86371 4.474C5.00551 4.73941 4.20438 4.85795 3.46828 4.70801L3.46821 4.708C3.15136 4.64367 2.86456 4.4177 2.72412 4.14097C2.58685 3.8705 2.59149 3.55992 2.8387 3.29571Z" fill="#222222" stroke="#F8F7F1" stroke-width="0.25" stroke-miterlimit="10"/>
<path id="Vector_6" fill-rule="evenodd" clip-rule="evenodd" d="M0.210299 11.7187C1.79684 5.76314 18.2091 18.4879 19.7476 11.9254C19.9843 10.7223 19.9964 9.48669 19.786 8.27876C18.5252 13.0576 8.26559 6.1778 3.07929 6.07564C1.57208 6.04559 0.420636 7.00593 0.180251 8.4903C0.102126 8.9891 0.0624624 9.4927 0.0600586 9.99751C0.0600586 10.5744 0.110539 11.1502 0.210299 11.7187Z" fill="#222222" stroke="#F8F7F1" stroke-width="0.25" stroke-miterlimit="10"/>
<g id="Vector_7">
<path fill-rule="evenodd" clip-rule="evenodd" d="M19.786 11.7188C18.3136 6.19 4.44701 16.5482 0.894127 13.2609C0.579223 12.9688 0.376098 12.4725 0.247492 11.9256C0.0107132 10.7225 -0.00130606 9.48688 0.20903 8.27894C1.71023 13.9688 15.9674 3.13231 19.2367 6.88351C19.5335 7.22366 19.7174 7.84505 19.822 8.49048C19.9843 9.5626 19.9722 10.6539 19.786 11.7225" fill="#222222"/>
<path d="M19.786 11.7188C18.3136 6.19 4.44701 16.5482 0.894127 13.2609C0.579223 12.9688 0.376098 12.4725 0.247492 11.9256C0.0107132 10.7225 -0.00130606 9.48688 0.20903 8.27894C1.71023 13.9688 15.9674 3.13231 19.2367 6.88351C19.5335 7.22366 19.7174 7.84505 19.822 8.49048C19.9843 9.5626 19.9722 10.6539 19.786 11.7225" stroke="#F8F7F1" stroke-width="0.25" stroke-miterlimit="10"/>
</g>
<path id="Vector_8" d="M10.0061 19.8101L10.0058 19.8101C7.28819 19.8137 4.69274 18.6863 2.83899 16.6996L2.83896 16.6996C2.5922 16.4353 2.58734 16.1246 2.72434 15.8541C2.86448 15.5775 3.15093 15.3515 3.46834 15.2872L3.46846 15.2872C4.20456 15.1372 5.00568 15.2558 5.86389 15.5212C6.68426 15.7749 7.54457 16.1587 8.43836 16.5573C8.47988 16.5759 8.52147 16.5944 8.56314 16.613C10.4289 17.4447 12.4388 18.3204 14.4321 18.0978L14.4327 18.0977C15.0782 18.0225 15.7047 17.8341 16.2825 17.5414C14.5296 19.0024 12.3107 19.8122 10.0061 19.8101ZM16.6922 17.3113C16.7293 17.2893 16.7678 17.2668 16.8068 17.244C14.9704 18.971 12.5393 19.9374 10.006 19.9351C7.25361 19.9387 4.625 18.7969 2.7476 16.7849C2.17187 16.1683 2.73197 15.3089 3.44351 15.1647C4.93996 14.8599 6.66139 15.6278 8.48653 16.442C10.3966 17.294 12.4201 18.1967 14.4183 17.9736L16.6922 17.3113Z" fill="#222222" stroke="#F8F7F1" stroke-width="0.25" stroke-miterlimit="10"/>
<path id="Vector_9" d="M19.3388 16.2994L22.3208 13.4845C23.1321 14.4616 23.8953 15.035 24.9446 15.035C26.0888 15.035 26.8292 14.2477 26.8292 12.6972V2.1311H31.4302V12.7212C31.4302 14.8198 30.9049 16.2994 29.7847 17.4196C28.6874 18.5169 27.1129 19.1131 25.2042 19.1131C22.2944 19.1131 20.5299 17.8967 19.3364 16.2994" fill="#222222"/>
<path id="Vector_10" d="M37.2462 2.01074H41.7066L48.8136 18.8268H43.8532L42.6609 15.822H36.197L35.0047 18.8268H30.1621L37.2462 2.01074ZM41.3003 12.2199L39.4398 7.49752L37.5599 12.2199H41.3003Z" fill="#222222"/>
<path id="Vector_11" d="M70.1117 2.1311H62.9326V5.94961L64.3136 18.833H67.5588V14.0566H69.8725C73.9987 14.0566 77.0276 11.9821 77.0276 8.02173V7.97485C77.0276 4.30178 74.3088 2.1311 70.1117 2.1311ZM72.4254 8.23327C72.4254 9.54457 71.399 10.428 69.7812 10.428H67.5588V6.01933H69.7535C71.399 6.01933 72.4254 6.75851 72.4254 8.18279V8.23327Z" fill="#222222"/>
<path id="Vector_12" d="M54.9337 18.827L58.9794 9.30418L60.1248 18.827H54.9337ZM54.3845 18.827L50.3376 9.30418L49.1934 18.827H54.3845ZM50.9482 2.24048L54.6585 11.0842L58.37 2.24048H50.9482Z" fill="#222222"/>
</g>
<defs>
<clipPath id="clip0_9015_25006">
<rect width="77.0276" height="20" fill="white"/>
</clipPath>
</defs>
</svg>
