<svg width="105" height="20" viewBox="0 0 105 20" fill="none" xmlns="http://www.w3.org/2000/svg">
<g id="Layer_1" clip-path="url(#clip0_9015_24975)">
<path id="Vector" fill-rule="evenodd" clip-rule="evenodd" d="M36.4514 14.9972H28.3955V5.59863H36.0238V7.48005H31.5118V9.18187H36.0238V11.2087H31.5118V13.1186H36.4514V14.9972Z" fill="#222222"/>
<path id="Vector_2" fill-rule="evenodd" clip-rule="evenodd" d="M36.7046 12.4316V8.19556H39.8209V12.3746C39.8209 12.7309 39.9304 13.0017 40.1082 13.1813C40.3237 13.3609 40.6111 13.4208 40.9669 13.4208C41.22 13.4208 41.5415 13.3894 41.7536 13.2697C41.9691 13.1813 42.1128 13.0302 42.2188 12.8221C42.2907 12.6425 42.3249 12.3432 42.3249 11.9555V8.19556H45.4412V15H42.3249V14.045C42.147 14.3444 42.0718 14.4926 41.8255 14.6408C41.5723 14.8489 41.2884 14.9972 40.9292 15.0884C40.5358 15.1767 40.1424 15.1767 39.6396 15.1767C39.0307 15.1767 38.5655 15.0285 38.0626 14.8204C37.5974 14.6123 37.204 14.3444 36.9885 13.9852C36.773 13.6289 36.7012 13.0929 36.7012 12.4344L36.7046 12.4316Z" fill="#222222"/>
<path id="Vector_3" fill-rule="evenodd" clip-rule="evenodd" d="M55.4641 13.358C55.2144 13.2383 55.0365 13.0302 54.8928 12.7309C54.7457 12.4629 54.6739 12.1037 54.6739 11.6277C54.6739 10.9122 54.8176 10.4048 55.1049 10.1055C55.3888 9.80614 55.7856 9.6294 56.2132 9.6294C56.6408 9.6294 56.9658 9.77764 57.2155 10.0456C57.5371 10.3734 57.7184 10.8808 57.7184 11.5678C57.7184 12.0467 57.6465 12.4344 57.5029 12.7309C57.3968 13.0302 57.1813 13.2411 56.9658 13.358C56.7503 13.4777 56.5006 13.5376 56.2132 13.5376C55.9601 13.5376 55.7138 13.4777 55.4607 13.358H55.4641ZM52.8164 9.00227C51.992 9.65791 51.5986 10.5245 51.5986 11.6277C51.5986 12.4344 51.8141 13.0929 52.2417 13.6288C52.6728 14.1961 53.244 14.5809 53.9624 14.8204C54.6773 15.0598 55.4299 15.1767 56.1824 15.1767C57.1129 15.1767 57.9373 14.9971 58.6899 14.7007C59.4082 14.3728 59.9418 13.9538 60.301 13.4179C60.6226 12.9105 60.8005 12.2833 60.8005 11.5963C60.8005 10.5245 60.4071 9.62655 59.5827 8.97091C58.7959 8.34662 57.6499 8.0188 56.1824 8.0188C54.7149 8.0188 53.6374 8.34662 52.8164 9.00227Z" fill="#222222"/>
<path id="Vector_4" fill-rule="evenodd" clip-rule="evenodd" d="M101.62 12.5512C101.582 12.728 101.511 12.879 101.439 12.9703C101.295 13.1498 101.117 13.3579 100.898 13.4178C100.649 13.5062 100.399 13.5689 100.146 13.5689C99.79 13.5689 99.79 13.5062 99.6087 13.3864C99.465 13.2981 99.3966 13.0586 99.3966 12.8505C99.3966 12.7023 99.3966 12.5227 99.5027 12.403C99.6463 12.2833 99.6463 12.2262 100.006 12.1065C100.543 11.9868 100.936 11.9583 101.117 11.8984C101.292 11.8699 101.545 11.8699 101.654 11.8072C101.654 12.1949 101.654 12.4628 101.62 12.5541V12.5512ZM104.268 14.9971V9.83456C104.268 9.5381 104.196 9.29865 104.052 9.05919C103.909 8.88246 103.587 8.58314 103.262 8.40355C102.941 8.28382 102.116 7.95885 101.617 7.92749C101.617 7.92749 99.0409 7.63103 97.8573 8.16695C97.8573 8.16695 96.6771 8.67436 96.6771 10.1652H99.5779C99.5779 10.1652 99.5027 8.97082 100.833 9.18177C100.833 9.18177 101.439 9.44688 101.367 10.0769C101.333 10.2536 101.333 10.5529 101.121 10.6726C100.977 10.7325 100.652 10.7895 100.115 10.8522C99.0785 10.9406 98.9725 10.9093 98.432 11.029C97.8949 11.1487 97.4707 11.2969 97.18 11.4765C96.8926 11.6533 96.6395 11.8927 96.465 12.1635C96.3214 12.4628 96.2119 12.7593 96.2119 13.09C96.2119 13.6544 96.465 14.1333 96.9269 14.5524C97.4263 14.94 97.5015 14.9999 98.5004 15.1481C99.0751 15.2365 99.5403 15.1168 100.043 14.9685C100.505 14.8175 101.151 14.521 101.579 14.1932V14.9971H104.268Z" fill="#222222"/>
<path id="Vector_5" fill-rule="evenodd" clip-rule="evenodd" d="M80.7471 8.07585V10.2822C80.4221 10.2224 80.4939 10.2822 80.3161 10.2822C79.673 10.2822 79.2043 10.4305 78.8862 10.6984C78.5612 10.9664 78.2807 11.4453 78.2807 12.1009V14.9943H75.3423V8.18987H78.2431V9.41279C78.527 8.87688 78.7459 8.60892 79.1393 8.36946C79.5703 8.13001 80.1416 8.073 80.7505 8.073L80.7471 8.07585Z" fill="#222222"/>
<path id="Vector_6" fill-rule="evenodd" clip-rule="evenodd" d="M51.8481 8.07585V10.2822C51.5266 10.2224 51.6326 10.2822 51.4547 10.2822C50.8116 10.2822 50.3464 10.4305 50.0214 10.6984C49.6999 10.9664 49.3783 11.4453 49.3783 12.1009V14.9943H46.4775V8.18987H49.3783V9.41279C49.6657 8.87688 49.8436 8.60892 50.2746 8.36946C50.668 8.13001 51.2769 8.073 51.8857 8.073H51.8481V8.07585Z" fill="#222222"/>
<path id="Vector_7" fill-rule="evenodd" clip-rule="evenodd" d="M67.139 9.98563H65.2063V14.997H62.3431V10.0141H60.6978V8.04435H62.3431C62.3431 7.38586 62.3431 6.79008 62.3808 6.40239C62.415 6.07742 62.7023 5.62702 62.952 5.41893C63.2428 5.21083 63.5951 5.11961 63.8825 5.08825C64.3477 4.97138 64.7787 4.94287 65.6715 4.94287C65.8528 4.94287 66.8517 4.99988 67.2827 4.99988V6.6732H66.318C65.887 6.6732 65.6031 6.73021 65.4594 6.84994C65.3123 6.96967 65.2439 7.20912 65.2439 7.5683V8.04435H70.293L67.139 9.98278V9.98563Z" fill="#222222"/>
<path id="Vector_8" fill-rule="evenodd" clip-rule="evenodd" d="M91.0196 9.53816C92.169 9.56667 92.169 10.4931 92.169 10.4931V14.9971H95.4632V10.4304C95.4632 10.4304 95.641 7.83634 92.169 7.83634C92.169 7.83634 90.3799 7.77647 89.4803 8.78845C89.4803 8.78845 88.3343 7.62539 86.5453 7.80498C86.5453 7.80498 85.3275 7.92471 84.397 8.61171V8.01593H81.3184V14.9971H84.397V10.4931C84.397 10.4931 84.3628 9.53816 85.6148 9.53816H85.5806C86.7608 9.53816 86.7608 10.4931 86.7608 10.4931V14.9971H89.8395V10.4931C89.8395 10.4931 89.8771 9.53816 91.0196 9.53816Z" fill="#222222"/>
<path id="Vector_9" fill-rule="evenodd" clip-rule="evenodd" d="M71.6511 12.5514C71.6169 12.7281 71.5451 12.8792 71.4356 12.9704C71.2919 13.15 71.1483 13.3581 70.902 13.418C70.683 13.5064 70.4367 13.5691 70.1836 13.5691C69.8278 13.5691 69.7936 13.5064 69.65 13.3866C69.5063 13.2983 69.3968 13.0588 69.3968 12.8507C69.3968 12.7025 69.431 12.5229 69.5405 12.4032C69.6842 12.2834 69.7184 12.2264 70.0399 12.1067C70.5394 11.987 70.9362 11.9585 71.1483 11.8986C71.3261 11.8701 71.5451 11.8701 71.6511 11.8074V12.5543V12.5514ZM67.0331 9.98584H71.1175C71.1175 9.98584 71.7264 10.0143 71.7264 10.3422C71.7264 10.5503 71.6545 10.4933 71.5109 10.613C71.3672 10.7014 71.0114 10.7897 70.4744 10.8524C69.4345 10.9408 69.3284 10.9094 68.7914 11.0292C68.2543 11.1489 67.8233 11.2971 67.5394 11.4767C67.252 11.6535 67.0023 11.8929 66.821 12.1637C66.6773 12.463 66.5747 12.7595 66.5747 13.0902C66.5747 13.6546 66.821 14.1335 67.2896 14.5525C67.7925 14.9402 67.8609 15.0001 68.8666 15.1483C69.4755 15.2367 69.9031 15.117 70.4025 14.9687C70.8712 14.8177 71.5143 14.5212 71.9453 14.1934V14.9972H74.634V9.83476C74.634 9.53829 74.5622 9.17912 74.4151 8.93966C74.2748 8.72872 74.1312 8.55483 73.8096 8.37239C73.4162 8.13294 72.4823 8.10443 71.9829 8.07592C71.9829 8.07592 71.374 8.01606 70.3033 8.04742L67.0434 9.98584H67.0331Z" fill="#222222"/>
<path id="Vector_10" fill-rule="evenodd" clip-rule="evenodd" d="M12.0547 0C18.6636 0 24.0581 4.48974 24.0581 10C24.0581 15.5103 18.6636 20 12.0547 20C5.44579 20 0.0546875 15.5103 0.0546875 10C0.0546875 4.48974 5.44579 0 12.0547 0Z" fill="#222222"/>
<path id="Vector_11" d="M17.7236 10.0048C17.7233 9.71224 17.713 9.42523 17.6935 9.14388C17.717 9.42928 17.7294 9.72131 17.7294 10.0199V10.0341L17.7301 10.0477L17.7301 10.0477L17.7301 10.048L17.7302 10.0483L17.7302 10.0493L17.7307 10.0591C17.7311 10.0685 17.7316 10.0837 17.7322 10.1044C17.7333 10.1458 17.7344 10.209 17.734 10.292C17.7337 10.3346 17.7331 10.3825 17.7318 10.4352C17.7322 10.3824 17.7322 10.3338 17.7318 10.2897C17.731 10.1957 17.7288 10.1219 17.7268 10.0705C17.7258 10.0448 17.7248 10.0247 17.724 10.0105L17.7236 10.0048ZM21.8973 11.0287C21.8879 11.0837 21.8775 11.1406 21.8661 11.1994C21.8667 11.1962 21.8673 11.1929 21.8678 11.1896C21.931 10.826 21.9606 10.5287 21.9744 10.3194C21.9813 10.2147 21.9842 10.1319 21.9853 10.0736C21.9859 10.0445 21.9861 10.0215 21.9861 10.005L21.986 9.98515L21.9859 9.98203C21.9859 9.95071 21.9858 9.91948 21.9855 9.88835C21.987 9.95253 21.9879 10.0172 21.9882 10.0822L21.9881 10.0822L21.9884 10.0925C21.9884 10.0924 21.9884 10.0924 21.9884 10.0925C21.9884 10.0925 21.9884 10.0928 21.9884 10.0929C21.9884 10.093 21.9884 10.093 21.9884 10.0933C21.9884 10.0933 21.9884 10.0933 21.9884 10.0933L21.9884 10.0938L21.9885 10.1017C21.9885 10.1102 21.9886 10.1244 21.9883 10.1442C21.9877 10.1837 21.986 10.2451 21.981 10.3261C21.9711 10.4882 21.9485 10.7285 21.8973 11.0287Z" fill="#F8F7F1" stroke="#F8F7F1"/>
<path id="Vector_12" d="M1.46855 6.20461C1.89621 5.40208 2.4573 4.65553 3.13188 3.9834H11.89V6.20461H1.46855ZM3.12906 16.0222C2.43976 15.3326 1.86764 14.5648 1.43574 13.7411H11.89V16.0222H3.12906ZM11.8934 11.1561H0.586631C0.529734 10.7779 0.5 10.391 0.5 9.99993C0.5 9.61159 0.527481 9.24116 0.581274 8.87507H11.8934V11.1561Z" fill="#F8F7F1" stroke="#F8F7F1"/>
<g id="Vector_13">
<mask id="path-13-inside-1_9015_24975" fill="white">
<path fill-rule="evenodd" clip-rule="evenodd" d="M22.6694 5.33079H13.0742V4.88609L22.3821 4.85474C22.4881 5.00297 22.5976 5.18256 22.6694 5.33079ZM24.0651 9.77777V10.2253H13.0742V9.77777H24.0651ZM22.6694 14.6409C22.5976 14.8205 22.4915 14.9688 22.3821 15.117H13.0742V14.6409H22.6694Z"/>
</mask>
<path fill-rule="evenodd" clip-rule="evenodd" d="M22.6694 5.33079H13.0742V4.88609L22.3821 4.85474C22.4881 5.00297 22.5976 5.18256 22.6694 5.33079ZM24.0651 9.77777V10.2253H13.0742V9.77777H24.0651ZM22.6694 14.6409C22.5976 14.8205 22.4915 14.9688 22.3821 15.117H13.0742V14.6409H22.6694Z" fill="#F8F7F1"/>
<path d="M22.6694 5.33079V6.33079H24.2653L23.5693 4.89469L22.6694 5.33079ZM13.0742 5.33079H12.0742V6.33079H13.0742V5.33079ZM13.0742 4.88609L13.0708 3.8861L12.0742 3.88946V4.88609H13.0742ZM22.3821 4.85474L23.1954 4.27291L22.895 3.853L22.3787 3.85474L22.3821 4.85474ZM24.0651 9.77777H25.0651V8.77777H24.0651V9.77777ZM24.0651 10.2253V11.2253H25.0651V10.2253H24.0651ZM13.0742 10.2253H12.0742V11.2253H13.0742V10.2253ZM13.0742 9.77777V8.77777H12.0742V9.77777H13.0742ZM22.6694 14.6409L23.5979 15.0123L24.1465 13.6409H22.6694V14.6409ZM22.3821 15.117V16.117H22.8867L23.1865 15.711L22.3821 15.117ZM13.0742 15.117H12.0742V16.117H13.0742V15.117ZM13.0742 14.6409V13.6409H12.0742V14.6409H13.0742ZM22.6694 4.33079H13.0742V6.33079H22.6694V4.33079ZM14.0742 5.33079V4.88609H12.0742V5.33079H14.0742ZM13.0776 5.88609L22.3855 5.85473L22.3787 3.85474L13.0708 3.8861L13.0776 5.88609ZM21.5688 5.43657C21.6485 5.54802 21.7269 5.67892 21.7695 5.76689L23.5693 4.89469C23.4683 4.6862 23.3277 4.45791 23.1954 4.27291L21.5688 5.43657ZM23.0651 9.77777V10.2253H25.0651V9.77777H23.0651ZM24.0651 9.22532H13.0742V11.2253H24.0651V9.22532ZM14.0742 10.2253V9.77777H12.0742V10.2253H14.0742ZM13.0742 10.7778H24.0651V8.77777H13.0742V10.7778ZM21.7409 14.2695C21.7221 14.3167 21.6886 14.3727 21.5777 14.523L23.1865 15.711C23.2945 15.5648 23.4731 15.3243 23.5979 15.0123L21.7409 14.2695ZM22.3821 14.117H13.0742V16.117H22.3821V14.117ZM14.0742 15.117V14.6409H12.0742V15.117H14.0742ZM13.0742 15.6409H22.6694V13.6409H13.0742V15.6409Z" fill="#F8F7F1" mask="url(#path-13-inside-1_9015_24975)"/>
</g>
</g>
<defs>
<clipPath id="clip0_9015_24975">
<rect width="104.271" height="20" fill="white"/>
</clipPath>
</defs>
</svg>
