<svg width="62" height="20" viewBox="0 0 62 20" fill="none" xmlns="http://www.w3.org/2000/svg">
<g id="Layer_1" clip-path="url(#clip0_9015_25026)">
<path id="Vector" d="M10 0C4.47703 0 0 4.47703 0 10C0 15.523 4.47703 20 10 20C15.523 20 20 15.523 20 10C20 4.47703 15.523 0 10 0ZM15.1909 13.5362C15.1909 13.7078 15.0526 13.8462 14.881 13.8462H13.575C13.4034 13.8462 13.2651 13.7078 13.2651 13.5362V9.513C13.2651 9.4798 13.2263 9.4632 13.1987 9.48533L10.4317 12.2524C10.1937 12.4903 9.80078 12.4903 9.56281 12.2524L6.79579 9.48533C6.77366 9.4632 6.72939 9.4798 6.72939 9.513V13.5362C6.72939 13.7078 6.59104 13.8462 6.41948 13.8462H5.11345C4.94189 13.8462 4.80354 13.7078 4.80354 13.5362V6.46375C4.80354 6.2922 4.94189 6.15385 5.11345 6.15385H6.00996C6.17045 6.15385 6.33094 6.22025 6.44715 6.33647L9.88932 9.77864C9.95019 9.83951 10.0443 9.83951 10.1051 9.77864L13.5473 6.33647C13.6635 6.22025 13.8185 6.15385 13.9845 6.15385H14.881C15.0526 6.15385 15.1909 6.2922 15.1909 6.46375V13.5362Z" fill="#222222"/>
<path id="Vector_2" d="M43.2763 7.73123V6.6521C43.2763 6.48054 43.138 6.34219 42.9664 6.34219H37.045C36.8734 6.34219 36.7351 6.48054 36.7351 6.6521V13.7301C36.7351 13.9017 36.8734 14.04 37.045 14.04H42.9664C43.138 14.04 43.2763 13.9017 43.2763 13.7301V12.6565C43.2763 12.485 43.138 12.3466 42.9664 12.3466H38.7329C38.6886 12.3466 38.6554 12.3134 38.6554 12.2691V11.0406C38.6554 10.9963 38.6886 10.9631 38.7329 10.9631H42.9664C43.138 10.9631 43.2763 10.8248 43.2763 10.6532V9.72902C43.2763 9.55747 43.138 9.41911 42.9664 9.41911H38.7329C38.6886 9.41911 38.6554 9.38591 38.6554 9.34164V8.11308C38.6554 8.06881 38.6886 8.03561 38.7329 8.03561H42.9664C43.1435 8.04114 43.2763 7.90279 43.2763 7.73123ZM59.7401 14.04H61.0848C61.2564 14.04 61.3671 13.8629 61.2951 13.708L57.8917 6.69084C57.7866 6.48054 57.5763 6.34219 57.3383 6.34219H56.5691C56.3311 6.34219 56.1208 6.47501 56.0157 6.69084L52.6122 13.708C52.5403 13.8629 52.651 14.04 52.8225 14.04H54.1673C54.3444 14.04 54.5049 13.9404 54.5824 13.7799L55.2354 12.4352C55.263 12.3798 55.3128 12.3466 55.3737 12.3466H58.5392C58.6001 12.3466 58.6499 12.3798 58.6775 12.4352L59.3306 13.7799C59.4025 13.9404 59.563 14.04 59.7401 14.04ZM55.9935 10.8524L56.879 9.0262C56.9067 8.97086 56.9897 8.97086 57.0173 9.0262L57.9028 10.8524C57.9249 10.9022 57.8917 10.9631 57.8308 10.9631H56.0599C56.0101 10.9631 55.9714 10.9022 55.9935 10.8524ZM33.553 6.52481L30.1108 9.96698C30.05 10.0279 29.9559 10.0279 29.895 9.96698L26.4473 6.52481C26.3311 6.4086 26.1762 6.34219 26.0101 6.34219H25.1136C24.9421 6.34219 24.8037 6.48054 24.8037 6.6521V13.7301C24.8037 13.9017 24.9421 14.04 25.1136 14.04H26.4196C26.5912 14.04 26.7296 13.9017 26.7296 13.7301V9.70688C26.7296 9.67368 26.7683 9.65708 26.796 9.67921L29.563 12.4462C29.8009 12.6842 30.1939 12.6842 30.4318 12.4462L33.1988 9.67921C33.221 9.65708 33.2652 9.67368 33.2652 9.70688V13.7301C33.2652 13.9017 33.4036 14.04 33.5752 14.04H34.8812C35.0527 14.04 35.1911 13.9017 35.1911 13.7301V6.6521C35.1911 6.48054 35.0527 6.34219 34.8812 6.34219H33.9847C33.8242 6.34772 33.6692 6.4086 33.553 6.52481ZM51.8541 9.50212H48.8159C48.6443 9.50212 48.506 9.64048 48.506 9.81203V10.5813C48.506 10.7528 48.6443 10.8912 48.8159 10.8912H50.5591C50.6144 10.8912 50.6477 10.9465 50.6311 10.9963C50.299 11.8762 49.4357 12.5016 48.4285 12.4684C47.2553 12.4296 46.2924 11.4833 46.237 10.3101C46.1762 9.0096 47.2166 7.93599 48.506 7.93599C49.0317 7.93599 49.5187 8.11862 49.9061 8.41745C50.0278 8.51153 50.2049 8.506 50.3156 8.39532L51.1346 7.57628C51.2619 7.449 51.2509 7.2387 51.1125 7.12249C50.3986 6.51928 49.4744 6.15957 48.4672 6.1651C46.2481 6.1817 44.444 8.019 44.4661 10.2437C44.4883 12.4573 46.2868 14.2448 48.506 14.2448C50.7251 14.2448 52.5458 12.4352 52.5458 10.2049V10.1994C52.5458 9.8065 52.2359 9.50212 51.8541 9.50212Z" fill="#222222"/>
</g>
<defs>
<clipPath id="clip0_9015_25026">
<rect width="61.3171" height="20" fill="white"/>
</clipPath>
</defs>
</svg>
