<svg width="75" height="20" viewBox="0 0 75 20" fill="none" xmlns="http://www.w3.org/2000/svg">
<g id="Layer_1" clip-path="url(#clip0_9015_24996)">
<path id="Vector" d="M72.1927 0C71.8695 0 71.5709 0.0776498 71.2872 0.248479C71.0059 0.421897 70.7838 0.654847 70.6185 0.949916C70.4556 1.24757 70.3594 1.55817 70.3594 1.89983C70.3594 2.24149 70.4556 2.57539 70.6185 2.87045C70.7838 3.16811 71.0059 3.40106 71.2872 3.57189C71.5684 3.74272 71.867 3.82037 72.1927 3.82037C72.5184 3.82037 72.8367 3.74272 73.1205 3.57189C73.3993 3.40106 73.6238 3.1707 73.7891 2.87045C73.952 2.5728 74.026 2.24149 74.026 1.89983C74.026 1.55817 73.952 1.25016 73.7891 0.949916C73.6238 0.654847 73.4018 0.421897 73.1205 0.248479C72.8367 0.0776498 72.5209 0 72.1927 0ZM72.1927 0.362366C72.5974 0.362366 72.9403 0.512489 73.2266 0.815323C73.5153 1.11816 73.6584 1.47535 73.6584 1.89983C73.6584 2.32432 73.5153 2.70221 73.2266 3.00764C72.9403 3.30788 72.5974 3.458 72.1927 3.458C71.788 3.458 71.4475 3.30529 71.1588 3.00764C70.8702 2.70221 70.727 2.32949 70.727 1.89983C70.727 1.47017 70.8702 1.11816 71.1588 0.815323C71.4475 0.512489 71.7831 0.362366 72.1927 0.362366ZM71.3735 0.882619V2.93775H71.8473V2.12502C71.8744 2.12243 71.8991 2.12502 71.9114 2.12502C71.9756 2.12502 72.0397 2.16384 72.1063 2.2389C72.168 2.31396 72.2889 2.55209 72.474 2.94034H73.0563C72.8466 2.55209 72.7355 2.33726 72.7331 2.32949C72.6788 2.2389 72.6319 2.17419 72.5826 2.1276C72.548 2.09654 72.4888 2.06807 72.4098 2.03701C72.5924 1.99301 72.7355 1.91277 72.8194 1.81183C72.9033 1.71088 72.9477 1.60994 72.9477 1.47276C72.9477 1.29934 72.8861 1.14663 72.775 1.0431C72.664 0.936974 72.4839 0.885208 72.2371 0.885208H71.376L71.3735 0.882619ZM71.8473 1.24499H72.0841C72.2174 1.24499 72.3062 1.2631 72.363 1.31228C72.4172 1.35887 72.4493 1.41581 72.4493 1.49346C72.4493 1.56594 72.4172 1.62547 72.363 1.67465C72.3013 1.72124 72.2026 1.74194 72.0619 1.74194H71.8473V1.24499ZM6.24759 3.4813C5.42593 3.4813 4.52531 3.55895 3.53339 3.72978C2.53654 3.89543 1.68527 4.08697 0.991916 4.29403C0.318301 4.58134 0 5.04724 0 5.69432C0 5.74867 0.0222071 5.89362 0.0863608 6.10069C0.14558 6.31034 0.25168 6.51482 0.38739 6.70894C0.525567 6.90307 0.700756 7.04542 0.925294 7.1619C1.1449 7.28096 1.43852 7.28873 1.78644 7.18519C2.60563 6.97813 3.38781 6.82283 4.13545 6.68824C4.87815 6.56141 5.61099 6.48376 6.33395 6.48376C6.65472 6.53552 6.95081 6.608 7.2395 6.68824C7.52573 6.77106 7.77494 6.86165 7.97234 7.00401C8.16973 7.14896 8.31285 7.3612 8.42388 7.63556C8.53738 7.90734 8.5966 8.27747 8.5966 8.72007V9.53281C6.53628 9.53281 5.02126 9.65705 4.05156 9.91588C3.03003 10.1488 2.25032 10.5086 1.70254 10.9771C0.560112 11.8597 0 13.1151 0 14.7276C0 16.3401 0.560112 17.5592 1.70254 18.5247C2.39836 19.0993 3.21016 19.4875 4.11571 19.6998C5.02126 19.9068 6.0872 19.9948 7.30366 19.9948C8.14753 19.9948 9.10736 19.9301 10.2128 19.7903C11.3182 19.6454 12.3274 19.4616 13.2502 19.2261C13.5735 19.1226 13.8523 18.944 14.0472 18.6825C14.2446 18.4185 14.3482 18.1002 14.3482 17.7326V8.71748C14.3482 7.10237 13.7659 5.85221 12.626 4.967C11.8783 4.36651 10.9826 3.96532 9.9537 3.7686C8.92231 3.57448 7.68858 3.47612 6.24759 3.47612V3.4813ZM24.2797 3.4813C22.9374 3.4813 21.7308 3.59001 20.6378 3.79708C19.5447 4.00414 18.6441 4.39757 17.9236 4.97218C16.7836 5.85738 16.2013 7.11013 16.2013 8.72266V14.7328C16.2013 16.2987 16.7836 17.5644 17.9236 18.5298C18.6687 19.1303 19.5521 19.5212 20.5958 19.7049C21.6396 19.8861 22.8634 19.9767 24.2797 19.9767C24.6523 19.9767 25.0693 19.9482 25.5283 19.9094C25.9847 19.8732 26.456 19.8059 26.9298 19.7282C27.3986 19.6532 27.8699 19.5729 28.3288 19.4797C28.7878 19.3866 29.2048 19.2882 29.5798 19.1847C30.2213 18.9 30.5495 18.4185 30.5495 17.7378C30.5495 17.7171 30.515 17.567 30.4632 17.3081C30.3645 16.9173 30.1498 16.6222 29.8167 16.4255C29.4811 16.2288 29.1332 16.1874 28.7606 16.2909C27.8403 16.5265 27.0507 16.7076 26.3919 16.8112C25.738 16.9147 25.0052 16.9691 24.2156 16.9691C23.542 16.9691 23.0164 16.7879 22.6216 16.4488C22.4464 16.3427 22.286 16.1486 22.1478 15.8613C22.0121 15.574 21.9332 15.2012 21.9332 14.7302V8.72007C21.9579 8.25417 22.0368 7.86592 22.1478 7.58897C22.2614 7.3172 22.4119 7.12307 22.5994 6.98072C22.7869 6.83836 23.0164 6.71671 23.2878 6.66494C23.5617 6.61576 23.8603 6.564 24.2131 6.48376C24.9311 6.48376 25.6664 6.5407 26.4091 6.66494C27.1568 6.79953 27.939 6.97554 28.7582 7.18519C28.805 7.21367 28.9062 7.2292 29.0814 7.2292C29.8266 7.2292 30.288 6.87201 30.4607 6.14469C30.5125 5.88327 30.5471 5.71761 30.5471 5.69173C30.5471 5.04206 30.2214 4.57875 29.5773 4.29145C29.1776 4.18791 28.8198 4.09991 28.5213 4.01967C28.2227 3.94202 27.971 3.86955 27.7243 3.81519C26.53 3.58224 25.3703 3.47612 24.2773 3.47612L24.2797 3.4813ZM39.4891 3.4813C38.6477 3.4813 37.6533 3.55118 36.538 3.70648C35.4178 3.86178 34.4185 4.04038 33.5006 4.24744C33.1774 4.35357 32.901 4.55287 32.7036 4.81429C32.5037 5.0783 32.4026 5.37854 32.4026 5.74091V17.7404C32.4026 18.1882 32.5383 18.5609 32.8122 18.8482C33.0836 19.1355 33.4266 19.2779 33.8238 19.2779H36.6885C37.0858 19.2779 37.4362 19.1251 37.7224 18.8249C38.0111 18.5247 38.1542 18.1597 38.1542 17.7404V6.75812C38.6502 6.57176 39.1289 6.48635 39.5755 6.48635C39.9949 6.48635 40.2663 6.54329 40.3947 6.66753C40.6414 6.82801 40.8043 7.11272 40.8906 7.50356C40.977 7.89698 41.0189 8.30853 41.0189 8.72525V17.7404C41.0189 18.1882 41.1546 18.5609 41.4285 18.8482C41.7049 19.1355 42.0429 19.2779 42.4402 19.2779H45.3049C45.7046 19.2779 46.0427 19.1148 46.3165 18.8042C46.588 18.4884 46.7039 18.1364 46.7039 17.743V6.75812C46.9778 6.67529 47.2517 6.60541 47.5009 6.55364C47.7501 6.49929 47.9697 6.48635 48.1696 6.48635C48.742 6.48635 49.1245 6.66494 49.312 7.0299C49.4996 7.39485 49.5908 7.97205 49.5908 8.72525V17.7404C49.5908 18.1597 49.7364 18.5247 50.0227 18.8249C50.3113 19.1251 50.6395 19.2779 51.0343 19.2779H53.899C54.2963 19.2779 54.6343 19.1148 54.9107 18.8042C55.1821 18.4884 55.3203 18.1364 55.3203 17.743V8.72784C55.3203 7.16449 54.7602 5.91433 53.6399 4.97735C52.9713 4.43122 52.1521 4.02744 51.1848 3.80225C50.2151 3.58483 49.1813 3.48648 48.061 3.48648C47.1678 3.48648 46.3387 3.52789 45.5837 3.62107C44.8262 3.71166 44.0539 3.82814 43.2569 3.98343C42.6104 3.77637 42.0281 3.64178 41.5322 3.57707C41.0337 3.51495 40.3576 3.48648 39.4866 3.48648L39.4891 3.4813ZM64.2426 3.4813C63.3987 3.4813 62.4167 3.54083 61.3137 3.68578C60.2058 3.83072 59.1966 4.01708 58.2763 4.25003C57.953 4.35615 57.6792 4.55546 57.4793 4.81688C57.2794 5.0783 57.198 5.38113 57.198 5.7435V14.7379C57.198 16.3039 57.7581 17.5696 58.9005 18.535C59.6432 19.1355 60.5488 19.5263 61.5925 19.7101C62.6338 19.8913 63.8626 19.9819 65.2764 19.9819C65.649 19.9819 66.066 19.9534 66.525 19.9146C66.9864 19.8758 67.4527 19.8111 67.9265 19.7334C68.3978 19.6583 68.8641 19.5781 69.3255 19.4849C69.7869 19.3917 70.199 19.296 70.5765 19.1899C71.223 18.9051 71.5462 18.4237 71.5462 17.743C71.5684 17.6938 71.5438 17.5773 71.4821 17.3806C71.4204 17.1839 71.3094 16.9898 71.1588 16.7931C71.0108 16.6015 70.8159 16.4359 70.5765 16.3194C70.3421 16.2029 70.0806 16.1926 69.7573 16.2961C68.837 16.5291 68.0449 16.7128 67.3861 16.8164C66.7248 16.9225 66.0043 16.9742 65.2098 16.9742C64.5362 16.9742 63.9909 16.7931 63.5936 16.454C63.4209 16.3479 63.2778 16.1537 63.1421 15.8664C63.0039 15.5791 62.9274 15.2064 62.9274 14.7353V13.9433C64.9384 13.9433 66.4534 13.8398 67.4725 13.6042C68.4891 13.3169 69.2737 12.9442 69.8215 12.4964C70.9614 11.6112 71.5462 10.3662 71.5462 8.72266C71.5462 7.07907 70.9614 5.85479 69.8215 4.97218C69.1257 4.39498 68.3139 4.00414 67.4083 3.79708C66.5028 3.58742 65.4566 3.4813 64.2401 3.4813H64.2426ZM64.3511 6.48635C64.7731 6.48635 65.047 6.54329 65.1703 6.66753C65.4467 6.85389 65.612 7.12049 65.6885 7.45956C65.7625 7.79863 65.7971 8.23347 65.7971 8.72525C65.7971 9.14197 65.7576 9.54316 65.6688 9.94435C65.5799 10.3507 65.4245 10.6251 65.1728 10.7804C65.0001 10.9098 64.7385 10.9823 64.4178 10.9823C63.944 10.9823 63.4555 10.8943 62.9324 10.7105V6.75553C63.4308 6.56917 63.907 6.48376 64.3536 6.48376L64.3511 6.48635ZM7.06678 12.4964C7.58988 12.4964 8.10064 12.5896 8.5966 12.7449V16.7232C8.10064 16.9044 7.62196 16.995 7.17535 16.995C6.60537 16.995 6.23278 16.8164 6.03292 16.4514C5.83306 16.089 5.73189 15.5196 5.73189 14.7328C5.70722 14.0572 5.81332 13.4904 6.03292 13.0607C6.25993 12.631 6.5955 12.4473 7.06678 12.4964Z" fill="#222222"/>
</g>
<defs>
<clipPath id="clip0_9015_24996">
<rect width="74.0236" height="20" fill="white"/>
</clipPath>
</defs>
</svg>
