<svg width="86" height="20" viewBox="0 0 86 20" fill="none" xmlns="http://www.w3.org/2000/svg">
<g id="Group 48095656">
<path id="Vector" d="M12.8986 11.179L20.0835 10L12.8986 8.821L17.1423 2.929L11.2257 7.155L10.0418 0L8.85884 7.155L2.94123 2.929L7.18488 8.821L0 10L7.18488 11.179L2.94123 17.071L8.85884 12.845L10.0418 20L11.2257 12.845L17.1423 17.071L12.8986 11.179Z" fill="#222222"/>
<path id="Vector_2" d="M49.7015 6.51602C49.0378 6.18502 48.2776 6.02002 47.423 6.02002H43.9205V9.55802H45.4087V7.27402H47.3548C47.9422 7.27402 48.4594 7.38602 48.9062 7.61002C49.3531 7.83402 49.6965 8.15302 49.9365 8.56802C50.1765 8.98202 50.297 9.46302 50.297 10.01C50.297 10.557 50.1765 11.038 49.9365 11.452C49.6965 11.866 49.3531 12.185 48.9062 12.41C48.4594 12.634 47.9422 12.746 47.3548 12.746H45.4087V10.455H43.9205V14H47.423C48.2776 14 49.0368 13.835 49.7015 13.504C50.3653 13.173 50.8804 12.706 51.247 12.102C51.6135 11.498 51.7962 10.801 51.7962 10.01C51.7962 9.22002 51.6135 8.52202 51.247 7.91802C50.8804 7.31402 50.3653 6.84602 49.7015 6.51602ZM36.5559 6.02002L32.9499 14H34.4842L35.2745 12.153H39.2812L40.0825 14H41.639L38.022 6.02002H36.5559ZM35.7776 10.99L37.2769 7.50202L38.7881 10.99H35.7776ZM30.3681 10.409C30.6614 9.97602 30.809 9.45902 30.809 8.85902C30.809 8.27402 30.6714 7.76902 30.3973 7.34302C30.1221 6.91702 29.7275 6.59102 29.2123 6.36302C28.6972 6.13502 28.0927 6.02102 27.3978 6.02102H24.1011V9.55902H25.5893V7.27502H27.3295C27.9782 7.27502 28.4702 7.41202 28.8066 7.68502C29.142 7.95902 29.3107 8.35002 29.3107 8.85902C29.3107 9.36802 29.143 9.76202 28.8066 10.039C28.4702 10.317 27.9782 10.455 27.3295 10.455H24.1011V14H25.5893V11.674H27.3978C27.5354 11.674 27.6378 11.67 27.7071 11.663L29.3439 14H30.9465L29.1039 11.378C29.6522 11.165 30.0739 10.842 30.3681 10.409ZM54.6079 14H56.0961V6.02002H54.6079V14ZM61.9876 6.02002L58.3816 14H59.916L60.7063 12.153H64.7129L65.5143 14H67.0708L63.4537 6.02002H61.9876ZM61.2094 10.99L62.7086 7.50202L64.2199 10.99H61.2094ZM78.7995 6.02002V7.27402H81.4556V14H82.9438V7.27402H85.5998V6.02002H78.7995ZM74.9957 11.424L70.5773 6.02002H69.3522V14H70.8294V8.59602L75.2478 14H76.4729V6.02002H74.9957V11.424Z" fill="#222222"/>
</g>
</svg>
