<svg width="82" height="20" viewBox="0 0 82 20" fill="none" xmlns="http://www.w3.org/2000/svg">
<g id="Layer_1" clip-path="url(#clip0_9015_24989)">
<path id="Vector" d="M81.1305 0V19.5686H78.6926V17.4503C78.5652 17.5647 78.4873 17.627 78.4145 17.6972C77.1591 18.9292 75.4931 19.6621 73.7361 19.7531C72.2027 19.8648 70.703 19.7167 69.3021 19.0435C66.9629 17.9181 65.6192 16.039 65.2813 13.4607C65.0682 11.8285 65.2215 10.2326 65.9986 8.75894C67.1786 6.52892 69.0864 5.26576 71.5269 4.81611C73.3281 4.48603 75.0981 4.66017 76.7251 5.59584C77.2761 5.95971 77.7985 6.36517 78.2845 6.81222C78.3339 6.8642 78.3755 6.92398 78.4093 6.98636L78.4977 6.94217V0H81.1305ZM73.2865 17.4789C76.3924 17.4789 78.5834 15.3138 78.586 12.2339C78.5886 9.154 76.4158 6.95257 73.3177 6.95257C70.2196 6.95257 68.0129 9.10461 68.0051 12.1845C67.9973 15.306 70.165 17.4789 73.2865 17.4789Z" fill="#222222"/>
<path id="Vector_2" d="M15.5687 17.31V18.9916C14.594 19.3372 13.5336 19.3684 12.5382 19.0799C11.7844 18.9006 11.2308 18.2612 11.1606 17.4919C11.1606 17.4269 11.1372 17.3619 11.1217 17.2996C11.1139 17.2814 11.1009 17.2658 11.0879 17.2502C10.6616 17.5621 10.2536 17.8999 9.81171 18.1832C8.54335 18.963 7.08266 19.384 5.59339 19.397C4.34062 19.4438 3.12945 19.2905 2.01704 18.6667C0.691502 17.9259 -0.0466402 16.8109 0.000143454 15.2593C0.000143454 13.822 0.816258 12.5094 2.10801 11.8805C3.09826 11.345 4.18728 11.1553 5.28669 11.0435C6.78117 10.8928 8.27825 10.7447 9.77272 10.5809C10.6798 10.4795 11.1476 9.757 11.0073 8.71736C10.9345 8.08838 10.5421 7.54257 9.96766 7.27487C9.05537 6.79923 8.06252 6.72906 7.06187 6.75505C6.54465 6.76804 6.02743 6.83042 5.52321 6.94478C4.43679 7.15531 3.60248 8.0286 3.44394 9.12282C3.39975 9.35934 3.30619 9.41392 3.08266 9.41132H0.826654C0.881235 7.87526 1.45563 6.67188 2.74998 5.86616C3.68825 5.32035 4.73829 4.99546 5.82211 4.90969C7.48812 4.67838 9.18533 4.80313 10.7994 5.27357C11.6181 5.49449 12.364 5.93114 12.9566 6.53932C13.4842 7.11112 13.7675 7.86486 13.7493 8.64199V16.4055C13.7493 17.1852 14.0482 17.4633 14.8254 17.4009C15.0489 17.3827 15.2854 17.3489 15.5687 17.31ZM10.9449 12.0468C10.5992 12.1664 10.2458 12.2677 9.88968 12.3457C8.66291 12.5328 7.43094 12.6966 6.19897 12.8655C5.40105 12.9279 4.61873 13.1384 3.89618 13.4841C3.35297 13.731 2.9735 14.2378 2.89033 14.8278C2.73958 16.065 3.34517 17.0319 4.56674 17.2996C6.4173 17.744 8.36922 17.3281 9.87669 16.1664C10.4875 15.7661 10.8773 15.1059 10.9345 14.3782C10.9735 13.6011 10.9449 12.8213 10.9449 12.0468Z" fill="#222222"/>
<path id="Vector_3" d="M57.3177 12.3119C57.3177 16.681 54.0038 19.9585 49.5984 19.9585C45.1929 19.9585 41.918 16.6732 41.8947 12.2886C41.8713 7.90389 45.2189 4.59524 49.6477 4.60304C54.0766 4.61084 57.3177 7.8597 57.3177 12.3119ZM44.6549 12.2912C44.7329 12.9435 44.8524 13.5933 45.0162 14.2301C46.3157 18.2353 50.7939 18.4562 52.9122 16.3977C54.7316 14.6277 55.059 11.1657 53.5516 8.96172C52.0649 6.78888 49.0993 6.23007 46.9265 7.71675C46.6796 7.88569 46.4483 8.07803 46.2377 8.28855C45.1409 9.39317 44.7251 10.7577 44.6549 12.2912Z" fill="#222222"/>
<path id="Vector_4" d="M28.2702 6.46662L26.6432 8.30157C26.0922 7.9507 25.6035 7.50885 25.0213 7.28533C21.6607 5.98578 18.5496 8.02867 18.1675 11.4439C17.9674 12.7928 18.2247 14.1703 18.8979 15.3581C20.6185 18.2873 24.6003 18.1235 26.2585 16.4679C26.3963 16.3302 26.5366 16.208 26.7055 16.0339L28.4287 17.965C27.9895 18.2821 27.5788 18.607 27.1292 18.8903C24.5301 20.5563 19.3527 20.6005 16.7328 16.9461C15.6568 15.4309 15.1526 13.5855 15.3085 11.735C15.3787 9.56993 16.4028 7.54524 18.1026 6.20151C19.623 4.97474 21.406 4.55628 23.3241 4.60567C24.9824 4.60307 26.5938 5.15148 27.9063 6.16512C28.0259 6.25869 28.1298 6.35226 28.2702 6.46662Z" fill="#222222"/>
<path id="Vector_5" d="M39.9663 15.9871L41.7051 17.9364C41.1671 18.4744 40.5355 18.9084 39.8415 19.2151C36.85 20.4419 33.965 20.3016 31.3529 18.2899C29.6141 16.9513 28.7694 15.08 28.629 12.8967C28.5017 10.9188 28.9279 9.08648 30.1521 7.49324C31.6726 5.51533 33.7363 4.63424 36.1898 4.60305C38.0767 4.57186 39.8103 5.0293 41.3022 6.23788L41.4763 6.38342C41.4997 6.40422 41.5205 6.43021 41.5647 6.47699L39.9325 8.31975C39.4387 7.98446 39.0072 7.5816 38.4952 7.35548C35.6882 6.12092 32.3249 7.34249 31.566 10.8799C31.2125 12.5407 31.3997 14.1495 32.3665 15.6128C34.1495 18.3055 38.2509 18.1573 39.8623 16.156C39.8987 16.1014 39.9351 16.0442 39.9663 15.9871Z" fill="#222222"/>
<path id="Vector_6" d="M61.3464 19.5712H58.7266V4.99026H61.2529V6.80962C61.5336 6.48733 61.7727 6.18324 62.0326 5.91293C63.0982 4.83691 64.4264 4.61339 65.8637 4.74854C65.9468 4.77193 66.0144 4.83431 66.0404 4.91748V7.31644C65.3672 7.27226 64.6915 7.27226 64.0183 7.31644C62.6772 7.48278 61.7883 8.38207 61.5076 9.80117C61.3958 10.386 61.3386 10.9786 61.3386 11.5738C61.3205 14.1079 61.3386 16.642 61.3386 19.1735L61.3464 19.5712Z" fill="#222222"/>
</g>
<defs>
<clipPath id="clip0_9015_24989">
<rect width="81.1306" height="20" fill="white"/>
</clipPath>
</defs>
</svg>
